<svg height="60" width="60" viewBox="0 0 460 460" xmlns="http://www.w3.org/2000/svg">
<path fill="#000000" opacity="1.000000" stroke="none"
	d="
M461.000000,178.000000
	C461.000000,272.641083 461.000000,366.782166 461.000000,460.961609
	C307.733917,460.961609 154.467819,460.961609 1.100860,460.961609
	C1.100860,307.775635 1.100860,154.551163 1.100860,1.163347
	C154.333191,1.163347 307.666595,1.163347 461.000000,1.163347
	C461.000000,59.865467 461.000000,118.682732 461.000000,178.000000
M63.156727,116.999664
	C59.114296,119.335281 55.071865,121.670898 50.609322,124.859459
	C50.684795,131.905029 50.760269,138.950592 50.569561,146.901703
	C50.658226,155.266312 50.746887,163.630905 50.569851,172.901245
	C50.657707,181.933334 50.745564,190.965439 50.566605,200.902908
	C50.655346,209.599335 50.744083,218.295746 50.570084,227.899048
	C50.657482,242.261246 50.744884,256.623444 50.567123,271.892487
	C50.655624,278.593719 50.744122,285.294922 50.566589,292.901642
	C50.653866,299.933777 50.741142,306.965881 50.560345,314.902863
	C50.538418,321.519287 50.457085,328.136444 50.543396,334.751465
	C50.561214,336.116974 50.770573,338.220520 51.626549,338.717102
	C58.316761,342.598206 65.186371,346.170013 72.642883,350.134064
	C79.076912,354.135498 85.510948,358.136963 92.249893,362.780151
	C99.820404,366.893860 107.390923,371.007568 115.256096,375.743195
	C120.805992,378.970856 126.350800,382.207275 131.908478,385.421509
	C133.923340,386.586792 135.968948,387.698853 138.647888,389.140533
	C142.639191,391.490417 146.659592,393.792603 150.612015,396.206177
	C153.453918,397.941589 156.205078,399.825592 159.598221,402.081024
	C166.358047,405.735931 173.117874,409.390808 180.161987,413.681915
	C188.093292,418.158386 196.024597,422.634857 204.229843,427.750641
	C211.824097,432.150482 219.418350,436.550323 227.532379,441.487244
	C230.000351,441.572540 232.747025,442.386902 234.871918,441.574646
	C238.176804,440.311340 241.058914,437.942047 244.781265,435.747070
	C247.609818,434.266327 250.525604,432.929230 253.249069,431.275452
	C259.231415,427.642731 265.116516,423.849823 271.773132,420.007263
	C277.550110,416.690643 283.327087,413.374023 289.752747,409.774933
	C297.564789,405.006775 305.376831,400.238647 313.945465,395.454773
	C321.963959,390.581909 329.982483,385.709015 338.728638,380.885254
	C348.300262,375.208984 357.871857,369.532715 368.218231,363.939087
	C371.947205,361.755676 375.706238,359.621826 379.398102,357.377380
	C384.993622,353.975647 390.542358,350.497040 396.760986,346.768433
	C399.889984,345.171143 403.398499,344.031708 406.037994,341.843903
	C408.527130,339.780792 413.217468,339.870361 413.063019,334.815247
	C412.790100,325.882538 412.891296,316.938354 412.982727,307.071930
	C412.934601,290.047424 412.886475,273.022919 412.984802,255.071426
	C412.991882,216.295319 412.775696,177.516968 413.165619,138.744705
	C413.261169,129.243317 413.242554,120.912758 401.823730,118.291641
	C401.547974,118.228348 401.381775,117.784035 401.103973,117.619804
	C393.015472,112.838295 384.892548,108.114502 376.832489,103.285690
	C369.913086,99.140266 363.152100,94.723999 356.157806,90.712074
	C349.983643,87.170578 343.463165,84.230156 337.310547,80.654442
	C326.296021,74.253113 315.460083,67.545135 304.507507,61.035973
	C302.451752,59.814217 300.199921,58.922352 297.766418,57.253551
	C282.858734,48.463036 267.951050,39.672520 252.742035,30.249969
	C247.913651,27.420435 243.159760,24.451019 238.224289,21.822580
	C235.886871,20.577765 232.535080,18.542320 230.791519,19.348701
	C223.601837,22.673840 216.852341,26.950722 209.286575,31.180489
	C206.505524,32.725719 203.675873,34.190395 200.953339,35.832638
	C194.925858,39.468422 188.952209,43.193428 182.263855,47.083435
	C180.764099,48.059673 179.296371,49.089825 177.759140,50.002964
	C170.500504,54.314724 163.222855,58.594463 155.219894,62.986973
	C148.818008,66.673653 142.416107,70.360329 135.317123,74.182617
	C129.525360,77.742676 123.733597,81.302734 117.292282,85.178017
	C112.484062,88.101562 107.675850,91.025108 102.224709,94.242020
	C93.771332,99.148155 85.317955,104.054291 76.224068,109.244743
	C72.111900,111.813095 67.999725,114.381447 63.156727,116.999664
z"/>
<path fill="#C588FE" opacity="1.000000" stroke="none"
	d="
M298.038574,57.878258
	C300.199921,58.922352 302.451752,59.814217 304.507507,61.035973
	C315.460083,67.545135 326.296021,74.253113 337.310547,80.654442
	C343.463165,84.230156 349.983643,87.170578 356.157806,90.712074
	C363.152100,94.723999 369.913086,99.140266 376.832489,103.285690
	C384.892548,108.114502 393.015472,112.838295 401.103973,117.619804
	C401.381775,117.784035 401.547974,118.228348 401.823730,118.291641
	C413.242554,120.912758 413.261169,129.243317 413.165619,138.744705
	C412.775696,177.516968 412.991882,216.295319 412.579651,255.463776
	C411.534790,255.358963 410.667969,254.994263 410.289215,254.344910
	C403.850830,243.306595 397.543823,232.190887 391.017059,221.205597
	C389.832977,219.212601 387.803894,217.721619 386.091248,215.535400
	C386.011047,191.597610 385.962311,168.123154 386.049683,144.649200
	C386.061035,141.605576 385.542664,139.660233 382.510254,137.955109
	C373.586151,132.937042 365.007874,127.308388 356.206482,122.066040
	C350.685150,118.777412 344.972168,115.812408 339.406311,112.596329
	C332.888641,108.830261 326.437439,104.949188 319.964600,100.719391
	C318.332703,96.405754 316.988220,92.333450 314.998138,88.605820
	C309.488953,78.286415 303.710541,68.110748 298.038574,57.878258
z"/>
<path fill="#BA8EFE" opacity="1.000000" stroke="none"
	d="
M412.835907,307.998993
	C412.891296,316.938354 412.790100,325.882538 413.063019,334.815247
	C413.217468,339.870361 408.527130,339.780792 406.037994,341.843903
	C403.398499,344.031708 399.889984,345.171143 396.137878,346.735626
	C391.010864,339.189850 386.506958,331.676880 382.351501,323.994324
	C385.202179,322.747101 386.105652,321.044739 386.084106,318.146271
	C385.962158,301.764923 386.108734,285.381592 386.492676,269.066101
	C388.682709,270.974548 390.982544,272.544983 392.319031,274.710083
	C395.723175,280.224731 398.508118,286.120819 401.895660,291.646759
	C405.320526,297.233551 409.171570,302.559021 412.835907,307.998993
z"/>
<path fill="#BA8EFE" opacity="1.000000" stroke="none"
	d="
M209.941055,30.877764
	C216.852341,26.950722 223.601837,22.673840 230.791519,19.348701
	C232.535080,18.542320 235.886871,20.577765 238.224289,21.822580
	C243.159760,24.451019 247.913651,27.420435 252.885406,30.962326
	C253.445969,33.258636 253.547318,35.022724 254.331329,36.397491
	C259.684296,45.783981 265.336090,55.003452 270.530548,64.474762
	C271.976135,67.110588 272.204712,70.413864 272.620483,73.346405
	C268.053894,70.887474 263.829681,68.541847 259.669922,66.086990
	C253.732376,62.583000 247.673660,59.247066 241.978363,55.380299
	C236.129410,51.409233 230.635803,47.189022 223.858597,53.560795
	C223.443512,53.951035 222.654816,53.943893 222.017929,53.741943
	C221.312164,51.716316 220.777939,49.987362 219.918137,48.439228
	C216.649475,42.553734 213.275604,36.726673 209.941055,30.877764
z"/>
<path fill="#C08BFE" opacity="1.000000" stroke="none"
	d="
M272.991577,73.410934
	C272.204712,70.413864 271.976135,67.110588 270.530548,64.474762
	C265.336090,55.003452 259.684296,45.783981 254.331329,36.397491
	C253.547318,35.022724 253.445969,33.258636 253.036057,31.278343
	C267.951050,39.672520 282.858734,48.463036 297.902496,57.565907
	C303.710541,68.110748 309.488953,78.286415 314.998138,88.605820
	C316.988220,92.333450 318.332703,96.405754 319.638367,100.576874
	C303.867157,91.692299 288.429352,82.551620 272.991577,73.410934
z"/>
<path fill="#C08BFE" opacity="1.000000" stroke="none"
	d="
M412.909302,307.535461
	C409.171570,302.559021 405.320526,297.233551 401.895660,291.646759
	C398.508118,286.120819 395.723175,280.224731 392.319031,274.710083
	C390.982544,272.544983 388.682709,270.974548 386.419281,268.602600
	C386.066315,250.714203 386.115601,233.356552 386.164917,215.998886
	C387.803894,217.721619 389.832977,219.212601 391.017059,221.205597
	C397.543823,232.190887 403.850830,243.306595 410.289215,254.344910
	C410.667969,254.994263 411.534790,255.358963 412.506409,255.927261
	C412.886475,273.022919 412.934601,290.047424 412.909302,307.535461
z"/>
<path fill="#29DAFE" opacity="1.000000" stroke="none"
	d="
M50.832626,291.996155
	C50.744122,285.294922 50.655624,278.593719 51.054092,271.493774
	C53.309132,272.981598 55.471767,274.631744 56.770576,276.799438
	C60.522373,283.061035 63.773590,289.622345 67.520325,295.887207
	C70.028152,300.080475 73.045731,303.968903 75.908279,308.453979
	C75.988029,311.715057 76.152855,314.526917 75.960030,317.313965
	C75.735992,320.552094 76.489983,322.570465 79.852745,324.127686
	C84.482658,326.271606 88.639481,329.437164 93.016502,332.523438
	C98.750633,343.172180 104.567024,353.408997 110.129463,363.782043
	C112.063347,367.388458 113.368896,371.331818 114.961426,375.121277
	C107.390923,371.007568 99.820404,366.893860 92.096901,362.075043
	C91.413765,359.816864 91.114708,358.132599 90.318718,356.730469
	C78.876343,336.574310 67.416435,316.427551 55.789978,296.377533
	C54.740387,294.567474 52.513035,293.440399 50.832626,291.996155
z"/>
<path fill="#36D3FF" opacity="1.000000" stroke="none"
	d="
M75.835205,307.993744
	C73.045731,303.968903 70.028152,300.080475 67.520325,295.887207
	C63.773590,289.622345 60.522373,283.061035 56.770576,276.799438
	C55.471767,274.631744 53.309132,272.981598 51.186676,271.040344
	C50.744884,256.623444 50.657482,242.261246 51.055523,227.498871
	C53.079887,228.515366 55.046535,229.675018 56.080181,231.395279
	C59.656120,237.346558 62.710079,243.614212 66.344841,249.526535
	C69.216629,254.197815 72.650360,258.523621 75.907150,263.466309
	C75.931587,278.617767 75.883400,293.305756 75.835205,307.993744
z"/>
<path fill="#A698FE" opacity="1.000000" stroke="none"
	d="
M367.443481,363.856445
	C357.871857,369.532715 348.300262,375.208984 338.300110,380.518158
	C336.898834,378.245880 335.958038,376.323547 334.947205,374.438751
	C331.918213,368.790771 328.861847,363.157471 326.062012,357.292053
	C335.858521,351.669769 345.409088,346.273926 355.126190,341.188934
	C359.342957,348.952026 363.393219,356.404236 367.443481,363.856445
z"/>
<path fill="#6EB5FE" opacity="1.000000" stroke="none"
	d="
M271.041290,420.122284
	C265.116516,423.849823 259.231415,427.642731 253.249069,431.275452
	C250.525604,432.929230 247.609818,434.266327 244.100616,435.827515
	C240.329758,431.370911 236.992569,426.977692 234.236023,422.246216
	C232.391663,419.080444 231.372299,415.434052 230.370911,412.000671
	C232.126648,411.532227 233.606598,411.263794 234.845566,410.566956
	C242.220108,406.419098 249.538925,402.172241 257.174500,398.130310
	C261.995453,405.575439 266.518372,412.848877 271.041290,420.122284
z"/>
<path fill="#B093FE" opacity="1.000000" stroke="none"
	d="
M367.830872,363.897766
	C363.393219,356.404236 359.342957,348.952026 355.261108,340.872650
	C356.522949,339.294434 357.743835,338.219482 359.121796,337.412872
	C366.727722,332.960388 374.371979,328.573364 382.003082,324.163910
	C386.506958,331.676880 391.010864,339.189850 395.812866,346.876953
	C390.542358,350.497040 384.993622,353.975647 379.398102,357.377380
	C375.706238,359.621826 371.947205,361.755676 367.830872,363.897766
z"/>
<path fill="#B093FE" opacity="1.000000" stroke="none"
	d="
M209.613815,31.029129
	C213.275604,36.726673 216.649475,42.553734 219.918137,48.439228
	C220.777939,49.987362 221.312164,51.716316 221.888107,54.055939
	C213.336151,59.568367 204.891998,64.387100 196.150818,68.999229
	C191.554749,61.489105 187.255676,54.185574 182.956604,46.882046
	C188.952209,43.193428 194.925858,39.468422 200.953339,35.832638
	C203.675873,34.190395 206.505524,32.725719 209.613815,31.029129
z"/>
<path fill="#A698FE" opacity="1.000000" stroke="none"
	d="
M182.610229,46.982742
	C187.255676,54.185574 191.554749,61.489105 196.035217,69.350937
	C186.824020,75.313980 177.431427,80.718719 168.016296,85.740723
	C167.378708,83.673630 166.979202,81.867744 166.110260,80.326523
	C162.806396,74.466522 159.350845,68.692055 155.951981,62.885616
	C163.222855,58.594463 170.500504,54.314724 177.759140,50.002964
	C179.296371,49.089825 180.764099,48.059673 182.610229,46.982742
z"/>
<path fill="#7BAFFE" opacity="1.000000" stroke="none"
	d="
M76.864578,108.960434
	C85.317955,104.054291 93.771332,99.148155 102.811859,94.310608
	C107.971863,101.602371 112.544716,108.825539 116.958771,116.372330
	C113.868011,118.305588 110.922997,119.891975 108.006874,121.529816
	C102.344025,124.710335 96.697411,127.919762 90.898163,130.798218
	C86.123024,123.306297 81.493797,116.133362 76.864578,108.960434
z"/>
<path fill="#999FFE" opacity="1.000000" stroke="none"
	d="
M325.816132,357.518433
	C328.861847,363.157471 331.918213,368.790771 334.947205,374.438751
	C335.958038,376.323547 336.898834,378.245880 337.936279,380.493591
	C329.982483,385.709015 321.963959,390.581909 313.415649,395.112915
	C308.439819,387.442719 303.993774,380.114380 299.764160,372.493042
	C301.672485,371.277222 303.380585,370.382751 305.053406,369.426575
	C311.980103,365.467346 318.896179,361.489471 325.816132,357.518433
z"/>
<path fill="#8AA7FE" opacity="1.000000" stroke="none"
	d="
M299.547729,372.786011
	C303.993774,380.114380 308.439819,387.442719 313.037354,395.120789
	C305.376831,400.238647 297.564789,405.006775 289.179413,409.670898
	C284.386047,402.003235 280.166016,394.439606 276.099762,386.559021
	C282.987793,382.165405 289.711182,378.070526 296.468964,374.033234
	C297.408325,373.472076 298.517303,373.194763 299.547729,372.786011
z"/>
<path fill="#1FDFFE" opacity="1.000000" stroke="none"
	d="
M50.699608,292.448914
	C52.513035,293.440399 54.740387,294.567474 55.789978,296.377533
	C67.416435,316.427551 78.876343,336.574310 90.318718,356.730469
	C91.114708,358.132599 91.413765,359.816864 91.944443,361.754150
	C85.510948,358.136963 79.076912,354.135498 72.318253,349.606995
	C71.692451,347.802734 71.662560,346.373993 71.046951,345.272552
	C66.355820,336.879547 61.681839,328.470764 56.698410,320.251251
	C55.248413,317.859650 52.812435,316.065826 50.828415,313.998016
	C50.741142,306.965881 50.653866,299.933777 50.699608,292.448914
z"/>
<path fill="#4BC8FF" opacity="1.000000" stroke="none"
	d="
M203.955887,427.111359
	C196.024597,422.634857 188.093292,418.158386 180.239014,413.135986
	C179.805466,410.916016 179.565109,409.092224 178.735413,407.595093
	C175.848190,402.385101 172.602951,397.371094 169.780960,392.128082
	C166.040024,385.177734 162.569168,378.082001 159.342010,371.126648
	C167.127762,375.485962 174.553726,379.767395 181.998932,384.420227
	C182.582199,386.329102 182.940414,387.984589 183.743439,389.385040
	C189.233337,398.959442 194.911682,408.426941 200.310730,418.051514
	C201.890167,420.867065 202.760529,424.080353 203.955887,427.111359
z"/>
<path fill="#55C3FF" opacity="1.000000" stroke="none"
	d="
M204.092865,427.431000
	C202.760529,424.080353 201.890167,420.867065 200.310730,418.051514
	C194.911682,408.426941 189.233337,398.959442 183.743439,389.385040
	C182.940414,387.984589 182.582199,386.329102 182.345947,384.487549
	C185.451523,385.793488 188.267624,387.341461 190.998642,389.027222
	C195.707779,391.933990 200.363998,394.926514 205.084518,398.247131
	C211.463623,409.972260 217.878418,421.291168 224.077225,432.727142
	C225.447784,435.255615 226.054291,438.198212 227.012619,440.950134
	C219.418350,436.550323 211.824097,432.150482 204.092865,427.431000
z"/>
<path fill="#36D3FF" opacity="1.000000" stroke="none"
	d="
M115.108765,375.432251
	C113.368896,371.331818 112.063347,367.388458 110.129463,363.782043
	C104.567024,353.408997 98.750633,343.172180 93.370895,332.549988
	C100.819366,336.439056 107.930984,340.659943 115.087685,345.235718
	C121.102043,355.912109 127.213722,366.155121 132.966095,376.596130
	C135.081177,380.435120 136.347214,384.741821 138.000534,388.835205
	C135.968948,387.698853 133.923340,386.586792 131.908478,385.421509
	C126.350800,382.207275 120.805992,378.970856 115.108765,375.432251
z"/>
<path fill="#4BC8FF" opacity="1.000000" stroke="none"
	d="
M50.833420,199.997528
	C50.745564,190.965439 50.657707,181.933334 51.058342,172.502197
	C52.742912,173.172043 54.288231,174.032089 55.074036,175.346283
	C58.309181,180.756790 61.143475,186.410049 64.448738,191.774704
	C68.057297,197.631622 72.023399,203.268265 75.907074,209.464417
	C75.932137,218.951431 75.883781,227.974945 75.516983,236.901199
	C69.804176,227.879288 64.554352,218.862396 58.945648,210.074524
	C56.639660,206.461441 53.560749,203.341690 50.833420,199.997528
z"/>
<path fill="#44CBFE" opacity="1.000000" stroke="none"
	d="
M158.982239,371.048767
	C162.569168,378.082001 166.040024,385.177734 169.780960,392.128082
	C172.602951,397.371094 175.848190,402.385101 178.735413,407.595093
	C179.565109,409.092224 179.805466,410.916016 180.096863,412.817871
	C173.117874,409.390808 166.358047,405.735931 159.297653,401.484802
	C158.500198,399.194122 158.310760,397.323547 157.457336,395.833221
	C151.149994,384.818970 144.649033,373.915192 138.394424,362.871613
	C137.660446,361.575592 138.053787,359.641052 138.279541,358.074066
	C145.417099,362.446655 152.199661,366.747711 158.982239,371.048767
z"/>
<path fill="#44CBFE" opacity="1.000000" stroke="none"
	d="
M50.700012,200.450226
	C53.560749,203.341690 56.639660,206.461441 58.945648,210.074524
	C64.554352,218.862396 69.804176,227.879288 75.590714,237.364899
	C75.933418,246.284866 75.883972,254.643860 75.834526,263.002869
	C72.650360,258.523621 69.216629,254.197815 66.344841,249.526535
	C62.710079,243.614212 59.656120,237.346558 56.080181,231.395279
	C55.046535,229.675018 53.079887,228.515366 51.186893,227.045441
	C50.744083,218.295746 50.655346,209.599335 50.700012,200.450226
z"/>
<path fill="#55C3FF" opacity="1.000000" stroke="none"
	d="
M75.833649,209.000916
	C72.023399,203.268265 68.057297,197.631622 64.448738,191.774704
	C61.143475,186.410049 58.309181,180.756790 55.074036,175.346283
	C54.288231,174.032089 52.742912,173.172043 51.191193,172.049347
	C50.746887,163.630905 50.658226,155.266312 51.054741,146.503876
	C52.781666,147.358139 54.326851,148.426895 55.213264,149.893723
	C59.312840,156.677673 63.066757,163.674088 67.271965,170.389313
	C69.816879,174.453262 72.959526,178.142914 75.907196,182.464233
	C75.931740,191.618790 75.882690,200.309845 75.833649,209.000916
z"/>
<path fill="#999FFE" opacity="1.000000" stroke="none"
	d="
M155.585938,62.936295
	C159.350845,68.692055 162.806396,74.466522 166.110260,80.326523
	C166.979202,81.867744 167.378708,83.673630 167.859802,86.059021
	C161.525482,90.189415 155.325150,93.618759 148.859207,96.831345
	C144.400467,89.092056 140.207352,81.569534 136.014221,74.047012
	C142.416107,70.360329 148.818008,66.673653 155.585938,62.936295
z"/>
<path fill="#3DCFFE" opacity="1.000000" stroke="none"
	d="
M137.924530,358.002533
	C138.053787,359.641052 137.660446,361.575592 138.394424,362.871613
	C144.649033,373.915192 151.149994,384.818970 157.457336,395.833221
	C158.310760,397.323547 158.500198,399.194122 158.996902,401.265961
	C156.205078,399.825592 153.453918,397.941589 150.612015,396.206177
	C146.659592,393.792603 142.639191,391.490417 138.324219,388.987854
	C136.347214,384.741821 135.081177,380.435120 132.966095,376.596130
	C127.213722,366.155121 121.102043,355.912109 115.446579,345.290771
	C123.148445,349.328094 130.536484,353.665314 137.924530,358.002533
z"/>
<path fill="#62BBFE" opacity="1.000000" stroke="none"
	d="
M227.272491,441.218689
	C226.054291,438.198212 225.447784,435.255615 224.077225,432.727142
	C217.878418,421.291168 211.463623,409.972260 205.446625,398.301819
	C213.839005,402.662506 221.911392,407.332611 229.983765,412.002716
	C231.372299,415.434052 232.391663,419.080444 234.236023,422.246216
	C236.992569,426.977692 240.329758,431.370911 243.770111,435.974792
	C241.058914,437.942047 238.176804,440.311340 234.871918,441.574646
	C232.747025,442.386902 230.000351,441.572540 227.272491,441.218689
z"/>
<path fill="#7BAFFE" opacity="1.000000" stroke="none"
	d="
M275.946014,386.875977
	C280.166016,394.439606 284.386047,402.003235 288.855072,409.812134
	C283.327087,413.374023 277.550110,416.690643 271.407227,420.064758
	C266.518372,412.848877 261.995453,405.575439 257.321838,397.805145
	C263.429413,393.830841 269.687714,390.353424 275.946014,386.875977
z"/>
<path fill="#5EBEFF" opacity="1.000000" stroke="none"
	d="
M75.833611,182.000732
	C72.959526,178.142914 69.816879,174.453262 67.271965,170.389313
	C63.066757,163.674088 59.312840,156.677673 55.213264,149.893723
	C54.326851,148.426895 52.781666,147.358139 51.187828,146.051102
	C50.760269,138.950592 50.684795,131.905029 51.159729,124.492325
	C53.073322,125.493340 54.767616,126.660744 55.740547,128.265503
	C59.339867,134.202240 62.579941,140.357040 66.188927,146.287552
	C69.235992,151.294693 72.607132,156.104630 75.907974,161.465164
	C75.931938,168.619232 75.882774,175.309982 75.833611,182.000732
z"/>
<path fill="#90A4FE" opacity="1.000000" stroke="none"
	d="
M135.665680,74.114807
	C140.207352,81.569534 144.400467,89.092056 148.705627,97.153488
	C142.878464,101.073639 136.939255,104.454887 130.930511,107.500183
	C126.554588,99.730423 122.248215,92.296608 117.941841,84.862793
	C123.733597,81.302734 129.525360,77.742676 135.665680,74.114807
z"/>
<path fill="#62BBFE" opacity="1.000000" stroke="none"
	d="
M75.834854,161.001846
	C72.607132,156.104630 69.235992,151.294693 66.188927,146.287552
	C62.579941,140.357040 59.339867,134.202240 55.740547,128.265503
	C54.767616,126.660744 53.073322,125.493340 51.369785,124.065842
	C55.071865,121.670898 59.114296,119.335281 63.826118,117.143555
	C65.666595,118.864784 66.967667,120.362976 67.985062,122.033897
	C71.417259,127.670784 74.748695,133.369019 77.909561,139.405396
	C77.134331,141.072922 76.131035,142.361252 76.077667,143.687805
	C75.845741,149.453079 75.890587,155.229492 75.834854,161.001846
z"/>
<path fill="#8AA7FE" opacity="1.000000" stroke="none"
	d="
M117.617065,85.020401
	C122.248215,92.296608 126.554588,99.730423 130.612976,107.646126
	C125.949188,110.768250 121.533379,113.408485 117.117569,116.048714
	C112.544716,108.825539 107.971863,101.602371 103.133324,94.163925
	C107.675850,91.025108 112.484062,88.101562 117.617065,85.020401
z"/>
<path fill="#6EB5FE" opacity="1.000000" stroke="none"
	d="
M78.118652,139.043793
	C74.748695,133.369019 71.417259,127.670784 67.985062,122.033897
	C66.967667,120.362976 65.666595,118.864784 64.191528,117.118622
	C67.999725,114.381447 72.111900,111.813095 76.544327,109.102585
	C81.493797,116.133362 86.123024,123.306297 90.758812,131.110229
	C86.549805,134.175415 82.334229,136.609604 78.118652,139.043793
z"/>
<path fill="#17E2FC" opacity="1.000000" stroke="none"
	d="
M50.694378,314.450439
	C52.812435,316.065826 55.248413,317.859650 56.698410,320.251251
	C61.681839,328.470764 66.355820,336.879547 71.046951,345.272552
	C71.662560,346.373993 71.692451,347.802734 71.997116,349.458618
	C65.186371,346.170013 58.316761,342.598206 51.626549,338.717102
	C50.770573,338.220520 50.561214,336.116974 50.543396,334.751465
	C50.457085,328.136444 50.538418,321.519287 50.694378,314.450439
z"/>
<path fill="#000000" opacity="1.000000" stroke="none"
	d="
M77.909561,139.405396
	C82.334229,136.609604 86.549805,134.175415 90.904724,131.429230
	C96.697411,127.919762 102.344025,124.710335 108.006874,121.529816
	C110.922997,119.891975 113.868011,118.305588 116.958771,116.372330
	C121.533379,113.408485 125.949188,110.768250 130.682526,107.982071
	C136.939255,104.454887 142.878464,101.073639 148.971252,97.370247
	C155.325150,93.618759 161.525482,90.189415 167.882324,86.441772
	C177.431427,80.718719 186.824020,75.313980 196.332230,69.557526
	C204.891998,64.387100 213.336151,59.568367 221.910141,54.435642
	C222.654816,53.943893 223.443512,53.951035 223.858597,53.560795
	C230.635803,47.189022 236.129410,51.409233 241.978363,55.380299
	C247.673660,59.247066 253.732376,62.583000 259.669922,66.086990
	C263.829681,68.541847 268.053894,70.887474 272.620453,73.346413
	C288.429352,82.551620 303.867157,91.692299 319.631165,100.975494
	C326.437439,104.949188 332.888641,108.830261 339.406311,112.596329
	C344.972168,115.812408 350.685150,118.777412 356.206482,122.066040
	C365.007874,127.308388 373.586151,132.937042 382.510254,137.955109
	C385.542664,139.660233 386.061035,141.605576 386.049683,144.649200
	C385.962311,168.123154 386.011047,191.597610 386.091248,215.535400
	C386.115601,233.356552 386.066315,250.714203 386.090393,268.535400
	C386.108734,285.381592 385.962158,301.764923 386.084106,318.146271
	C386.105652,321.044739 385.202179,322.747101 382.351501,323.994324
	C374.371979,328.573364 366.727722,332.960388 359.121796,337.412872
	C357.743835,338.219482 356.522949,339.294434 355.094604,340.561768
	C345.409088,346.273926 335.858521,351.669769 326.062012,357.292053
	C318.896179,361.489471 311.980103,365.467346 305.053406,369.426575
	C303.380585,370.382751 301.672485,371.277222 299.764160,372.493042
	C298.517303,373.194763 297.408325,373.472076 296.468964,374.033234
	C289.711182,378.070526 282.987793,382.165405 276.099762,386.558990
	C269.687714,390.353424 263.429413,393.830841 257.023804,397.633423
	C249.538925,402.172241 242.220108,406.419098 234.845566,410.566956
	C233.606598,411.263794 232.126648,411.532227 230.370911,412.000671
	C221.911392,407.332611 213.839005,402.662506 205.404510,397.937744
	C200.363998,394.926514 195.707779,391.933990 190.998642,389.027222
	C188.267624,387.341461 185.451523,385.793488 182.326706,384.116180
	C174.553726,379.767395 167.127762,375.485962 159.342010,371.126648
	C152.199661,366.747711 145.417099,362.446655 138.279541,358.074066
	C130.536484,353.665314 123.148445,349.328094 115.401505,344.935852
	C107.930984,340.659943 100.819366,336.439056 93.353363,332.191620
	C88.639481,329.437164 84.482658,326.271606 79.852745,324.127686
	C76.489983,322.570465 75.735992,320.552094 75.960030,317.313965
	C76.152855,314.526917 75.988029,311.715057 75.908272,308.453979
	C75.883400,293.305756 75.931587,278.617767 75.907150,263.466309
	C75.883972,254.643860 75.933418,246.284866 75.909142,237.462158
	C75.883781,227.974945 75.932137,218.951431 75.907074,209.464417
	C75.882690,200.309845 75.931740,191.618790 75.907196,182.464233
	C75.882774,175.309982 75.931938,168.619232 75.907974,161.465164
	C75.890587,155.229492 75.845741,149.453079 76.077667,143.687805
	C76.131035,142.361252 77.134331,141.072922 77.909561,139.405396
M221.747803,276.753967
	C222.846130,274.878632 223.944458,273.003296 225.693817,270.811188
	C227.240662,267.508453 228.787506,264.205750 230.921921,260.433533
	C232.690338,257.102844 234.458755,253.772186 236.784790,249.996155
	C238.895538,246.017029 241.006271,242.037888 243.749100,237.757370
	C245.853409,234.180313 247.957718,230.603241 250.500153,226.471954
	C252.014465,223.690338 253.528778,220.908722 255.550613,217.946365
	C255.648239,217.636505 255.745865,217.326645 255.997772,216.541199
	C255.997772,216.541199 256.108826,216.053711 256.742035,215.742096
	C258.532776,212.177887 260.323517,208.613693 262.755005,204.770813
	C265.185669,200.218552 267.616364,195.666290 270.695526,190.791595
	C273.897156,185.023590 277.098785,179.255600 280.480225,173.163666
	C273.508179,173.163666 267.255310,173.163666 260.077362,173.014542
	C254.717255,173.064011 249.357147,173.113480 243.155731,173.014771
	C238.646744,172.087189 236.081161,174.077698 234.918701,178.367905
	C234.577286,179.628006 233.895706,180.795929 232.928238,182.587433
	C231.079971,186.059891 229.231705,189.532349 226.933777,193.578598
	C224.917755,197.036911 222.901733,200.495224 220.247192,204.246826
	C218.481949,207.456589 216.716690,210.666367 214.303558,214.190125
	C212.519699,217.755310 210.735825,221.320511 208.314102,225.199112
	C206.813736,228.301666 205.313385,231.404221 203.248138,234.947540
	C201.841858,237.323105 200.435593,239.698685 198.552795,242.486725
	C197.700729,243.379669 196.848648,244.272614 195.358856,244.867538
	C190.930283,237.679779 186.341095,230.584686 182.123398,223.275238
	C178.681885,217.310989 175.828110,211.009811 172.454285,205.003784
	C168.024124,197.117294 162.504807,189.726715 159.011276,181.464371
	C155.854691,173.998886 151.454056,171.513779 143.091507,173.019928
	C139.725906,173.068756 136.360291,173.117599 132.083832,173.020706
	C128.389206,173.068253 124.694595,173.115814 120.118782,173.016373
	C117.521843,173.016373 114.924896,173.016373 111.466980,173.016373
	C139.722733,222.937256 167.592133,272.175537 195.917191,322.218872
	C198.358353,318.081238 200.156250,315.033905 202.452316,311.515411
	C203.692993,308.840118 204.933655,306.164856 206.647675,303.322723
	C206.767105,303.205566 206.886520,303.088379 207.550247,302.954620
	C207.653732,302.645966 207.757233,302.337341 208.141815,301.354858
	C209.798889,297.918396 211.455963,294.481964 213.749786,290.775238
	C215.210297,288.197937 216.670792,285.620667 218.758255,282.742950
	C219.543381,280.847412 220.328522,278.951904 221.747803,276.753967
M250.088654,277.359161
	C249.265610,278.539246 248.165359,279.617523 247.685654,280.923737
	C246.996552,282.800171 245.936203,285.129852 246.502792,286.753723
	C247.642776,290.020905 249.725586,292.970856 251.506332,296.000580
	C256.343689,304.230652 261.226440,312.434082 266.844971,321.920807
	C269.085175,317.976868 271.060333,314.499542 273.487396,310.480408
	C275.341888,307.023621 277.196381,303.566803 279.604828,299.894897
	C280.654388,297.850494 281.639435,295.769684 282.768616,293.770233
	C284.449829,290.793365 286.232819,287.874023 288.422241,284.373932
	C289.051056,283.144806 289.677856,281.914673 290.309082,280.686768
	C292.483856,276.456299 294.660217,272.226624 297.129272,267.358734
	C300.126923,262.255951 303.124573,257.153168 306.751038,251.752106
	C309.291077,247.129822 311.831116,242.507538 314.935547,237.269638
	C319.329315,229.194199 323.723083,221.118744 328.743958,212.744064
	C336.280182,199.710938 343.816406,186.677826 351.725677,172.999527
	C338.894440,172.999527 327.420135,172.998947 315.945831,172.999725
	C307.820038,173.000275 307.697876,173.088959 304.210724,181.187790
	C300.561462,188.057388 296.912201,194.927002 293.304230,201.846893
	C293.304230,201.846893 293.364044,201.818939 292.876862,201.714279
	C292.634613,202.142944 292.392365,202.571609 291.862579,203.645325
	C289.202789,208.415466 286.542969,213.185608 283.243988,218.245361
	C280.480255,223.458862 277.716492,228.672348 274.285919,234.151047
	C271.389923,239.431305 268.493927,244.711563 265.181030,250.620911
	C262.480988,255.422989 259.780945,260.225067 256.367859,265.177917
	C254.413910,269.060150 252.459976,272.942413 250.088654,277.359161
z"/>
<path fill="#25DCFF" opacity="1.000000" stroke="none"
	d="
M120.999985,173.163376
	C124.694595,173.115814 128.389206,173.068253 132.557724,173.458649
	C133.758301,175.740799 134.268814,177.709351 135.246323,179.409348
	C142.284088,191.648895 149.462372,203.807587 156.508667,216.042282
	C168.277924,236.477524 180.018021,256.929749 191.696487,277.416962
	C196.619171,286.052704 201.354065,294.795471 206.174316,303.489594
	C204.933655,306.164856 203.692993,308.840118 201.876373,311.668335
	C200.313782,310.727234 199.097336,309.766357 198.375046,308.519257
	C187.972595,290.558838 177.610504,272.574860 167.291595,254.566238
	C155.810303,234.529007 144.370239,214.468124 132.938843,194.402374
	C128.918732,187.345779 124.977333,180.244339 120.999985,173.163376
z"/>
<path fill="#36D3FF" opacity="1.000000" stroke="none"
	d="
M206.411011,303.406158
	C201.354065,294.795471 196.619171,286.052704 191.696487,277.416962
	C180.018021,256.929749 168.277924,236.477524 156.508667,216.042282
	C149.462372,203.807587 142.284088,191.648895 135.246323,179.409348
	C134.268814,177.709351 133.758301,175.740799 133.013153,173.531509
	C136.360291,173.117599 139.725906,173.068756 143.608673,173.432175
	C152.058487,187.694443 159.974945,201.553787 167.927551,215.392334
	C180.028976,236.450394 192.086624,257.534210 204.327164,278.511200
	C206.889801,282.902893 210.165787,286.878296 213.113037,291.045532
	C211.455963,294.481964 209.798889,297.918396 207.828094,301.818878
	C207.301300,302.480133 207.131821,302.709564 207.005936,302.971222
	C206.886520,303.088379 206.767105,303.205566 206.411011,303.406158
z"/>
<path fill="#17E2FC" opacity="1.000000" stroke="none"
	d="
M120.559387,173.089874
	C124.977333,180.244339 128.918732,187.345779 132.938843,194.402374
	C144.370239,214.468124 155.810303,234.529007 167.291595,254.566238
	C177.610504,272.574860 187.972595,290.558838 198.375046,308.519257
	C199.097336,309.766357 200.313782,310.727234 201.627289,311.903900
	C200.156250,315.033905 198.358353,318.081238 195.917191,322.218872
	C167.592133,272.175537 139.722733,222.937256 111.466980,173.016373
	C114.924896,173.016373 117.521843,173.016373 120.559387,173.089874
z"/>
<path fill="#44CBFE" opacity="1.000000" stroke="none"
	d="
M213.431427,290.910400
	C210.165787,286.878296 206.889801,282.902893 204.327164,278.511200
	C192.086624,257.534210 180.028976,236.450394 167.927551,215.392334
	C159.974945,201.553787 152.058487,187.694443 144.061890,173.504745
	C151.454056,171.513779 155.854691,173.998886 159.011276,181.464371
	C162.504807,189.726715 168.024124,197.117294 172.454285,205.003784
	C175.828110,211.009811 178.681885,217.310989 182.123398,223.275238
	C186.341095,230.584686 190.930283,237.679779 195.678970,245.406311
	C196.285400,247.380051 196.229980,249.007248 196.912033,250.219559
	C202.423401,260.015564 207.995743,269.779999 213.760818,279.427765
	C214.674805,280.957336 216.647858,281.854065 218.131287,283.043365
	C216.670792,285.620667 215.210297,288.197937 213.431427,290.910400
z"/>
<path fill="#C588FE" opacity="1.000000" stroke="none"
	d="
M304.882446,180.957977
	C307.697876,173.088959 307.820038,173.000275 315.945831,172.999725
	C327.420135,172.998947 338.894440,172.999527 351.725677,172.999527
	C343.816406,186.677826 336.280182,199.710938 328.079407,212.829361
	C326.229919,211.837112 324.702026,210.964462 323.915802,209.648636
	C318.913696,201.277115 314.157410,192.758057 309.105499,184.417572
	C308.216614,182.950119 306.315887,182.095581 304.882446,180.957977
z"/>
<path fill="#BA8EFE" opacity="1.000000" stroke="none"
	d="
M304.546570,181.072876
	C306.315887,182.095581 308.216614,182.950119 309.105499,184.417572
	C314.157410,192.758057 318.913696,201.277115 323.915802,209.648636
	C324.702026,210.964462 326.229919,211.837112 327.765869,212.978973
	C323.723083,221.118744 319.329315,229.194199 314.555817,237.113159
	C312.728149,234.190796 311.422089,231.338867 309.806366,228.674728
	C304.351166,219.679413 298.786041,210.750748 293.262939,201.796616
	C296.912201,194.927002 300.561462,188.057388 304.546570,181.072876
z"/>
<path fill="#A698FE" opacity="1.000000" stroke="none"
	d="
M306.122223,252.050385
	C303.124573,257.153168 300.126923,262.255951 296.651520,267.607178
	C295.215759,266.775970 294.064240,265.813324 293.330231,264.598358
	C287.161041,254.387039 281.068420,244.129486 274.952728,233.885834
	C277.716492,228.672348 280.480255,223.458862 283.902283,218.186188
	C288.869141,225.075363 293.132660,232.052170 297.502563,238.961716
	C300.294434,243.376068 303.243561,247.690933 306.122223,252.050385
z"/>
<path fill="#B093FE" opacity="1.000000" stroke="none"
	d="
M306.436646,251.901245
	C303.243561,247.690933 300.294434,243.376068 297.502563,238.961716
	C293.132660,232.052170 288.869141,225.075363 284.221863,218.041382
	C286.542969,213.185608 289.202789,208.415466 292.389893,203.109711
	C293.066162,202.322372 293.215088,202.070663 293.364044,201.818939
	C293.364044,201.818939 293.304230,201.846893 293.283569,201.821747
	C298.786041,210.750748 304.351166,219.679413 309.806366,228.674728
	C311.422089,231.338867 312.728149,234.190796 314.273621,237.420959
	C311.831116,242.507538 309.291077,247.129822 306.436646,251.901245
z"/>
<path fill="#999FFE" opacity="1.000000" stroke="none"
	d="
M274.619324,234.018433
	C281.068420,244.129486 287.161041,254.387039 293.330231,264.598358
	C294.064240,265.813324 295.215759,266.775970 296.504883,267.926117
	C294.660217,272.226624 292.483856,276.456299 290.309082,280.686768
	C289.677856,281.914673 289.051056,283.144806 288.030914,284.363403
	C281.620117,274.286438 275.648712,264.190643 269.532196,254.183533
	C268.553772,252.582748 266.925690,251.379074 265.597931,249.991821
	C268.493927,244.711563 271.389923,239.431305 274.619324,234.018433
z"/>
<path fill="#8AA7FE" opacity="1.000000" stroke="none"
	d="
M265.389465,250.306366
	C266.925690,251.379074 268.553772,252.582748 269.532196,254.183533
	C275.648712,264.190643 281.620117,274.286438 287.806030,284.641541
	C286.232819,287.874023 284.449829,290.793365 282.768616,293.770233
	C281.639435,295.769684 280.654388,297.850494 279.160217,299.699707
	C274.787720,292.956909 270.947357,286.354553 266.903717,279.879181
	C263.760895,274.846405 260.364563,269.971954 257.080902,265.027161
	C259.780945,260.225067 262.480988,255.422989 265.389465,250.306366
z"/>
<path fill="#7BAFFE" opacity="1.000000" stroke="none"
	d="
M256.724365,265.102539
	C260.364563,269.971954 263.760895,274.846405 266.903717,279.879181
	C270.947357,286.354553 274.787720,292.956909 278.883270,299.807281
	C277.196381,303.566803 275.341888,307.023621 272.966003,310.582642
	C271.320587,309.485474 269.925385,308.444305 269.117706,307.060303
	C264.699036,299.488708 260.513977,291.780121 256.052216,284.234741
	C254.491089,281.594666 252.370926,279.285126 250.506042,276.824646
	C252.459976,272.942413 254.413910,269.060150 256.724365,265.102539
z"/>
<path fill="#8AA7FE" opacity="1.000000" stroke="none"
	d="
M250.062027,227.026184
	C247.957718,230.603241 245.853409,234.180313 243.136322,237.732941
	C239.795914,233.366547 237.104706,229.001190 234.332382,224.687973
	C229.878357,217.758377 225.370682,210.863235 220.885696,203.953537
	C222.901733,200.495224 224.917755,197.036911 227.473114,193.371231
	C230.142273,196.044662 232.447754,198.813538 234.368301,201.827682
	C239.685410,210.172470 244.841980,218.619537 250.062027,227.026184
z"/>
<path fill="#7BAFFE" opacity="1.000000" stroke="none"
	d="
M220.566437,204.100189
	C225.370682,210.863235 229.878357,217.758377 234.332382,224.687973
	C237.104706,229.001190 239.795914,233.366547 242.820267,237.883636
	C241.006271,242.037888 238.895538,246.017029 236.345032,249.874390
	C228.920670,237.793793 221.936066,225.834961 214.951447,213.876129
	C216.716690,210.666367 218.481949,207.456589 220.566437,204.100189
z"/>
<path fill="#999FFE" opacity="1.000000" stroke="none"
	d="
M233.370010,182.006104
	C233.895706,180.795929 234.577286,179.628006 234.918701,178.367905
	C236.081161,174.077698 238.646744,172.087189 243.593613,173.452911
	C249.514847,183.899551 254.986572,193.914505 260.514587,203.898254
	C260.802338,204.417923 261.570038,204.671860 262.114288,205.049500
	C260.323517,208.613693 258.532776,212.177887 256.123322,215.729996
	C251.997482,210.135712 248.578156,204.495819 244.958984,198.987244
	C241.196609,193.260757 237.241074,187.661179 233.370010,182.006104
z"/>
<path fill="#90A4FE" opacity="1.000000" stroke="none"
	d="
M233.149124,182.296768
	C237.241074,187.661179 241.196609,193.260757 244.958984,198.987244
	C248.578156,204.495819 251.997482,210.135712 255.806717,215.885803
	C256.108826,216.053711 255.997772,216.541199 255.749390,216.934662
	C255.295456,217.564117 255.142807,217.830444 255.043091,218.127106
	C253.528778,220.908722 252.014465,223.690338 250.281097,226.749069
	C244.841980,218.619537 239.685410,210.172470 234.368301,201.827682
	C232.447754,198.813538 230.142273,196.044662 227.697937,193.084335
	C229.231705,189.532349 231.079971,186.059891 233.149124,182.296768
z"/>
<path fill="#6EB5FE" opacity="1.000000" stroke="none"
	d="
M214.627502,214.033127
	C221.936066,225.834961 228.920670,237.793793 236.066223,250.097076
	C234.458755,253.772186 232.690338,257.102844 230.535767,260.263672
	C227.041443,254.638901 224.041840,249.118393 220.796860,243.746063
	C216.959167,237.392487 212.909653,231.166824 208.951950,224.885712
	C210.735825,221.320511 212.519699,217.755310 214.627502,214.033127
z"/>
<path fill="#A698FE" opacity="1.000000" stroke="none"
	d="
M262.434631,204.910156
	C261.570038,204.671860 260.802338,204.417923 260.514587,203.898254
	C254.986572,193.914505 249.514847,183.899551 244.014267,173.527008
	C249.357147,173.113480 254.717255,173.064011 260.556213,173.453033
	C264.039062,179.632370 267.043060,185.373199 270.047058,191.114014
	C267.616364,195.666290 265.185669,200.218552 262.434631,204.910156
z"/>
<path fill="#62BBFE" opacity="1.000000" stroke="none"
	d="
M208.633026,225.042419
	C212.909653,231.166824 216.959167,237.392487 220.796860,243.746063
	C224.041840,249.118393 227.041443,254.638901 230.242004,260.498413
	C228.787506,264.205750 227.240662,267.508453 225.303680,270.615936
	C217.880020,258.449371 210.846512,246.478088 203.813019,234.506775
	C205.313385,231.404221 206.813736,228.301666 208.633026,225.042419
z"/>
<path fill="#6EB5FE" opacity="1.000000" stroke="none"
	d="
M250.297348,277.091919
	C252.370926,279.285126 254.491089,281.594666 256.052216,284.234741
	C260.513977,291.780121 264.699036,299.488708 269.117706,307.060303
	C269.925385,308.444305 271.320587,309.485474 272.740051,310.853516
	C271.060333,314.499542 269.085175,317.976868 266.844971,321.920807
	C261.226440,312.434082 256.343689,304.230652 251.506332,296.000580
	C249.725586,292.970856 247.642776,290.020905 246.502792,286.753723
	C245.936203,285.129852 246.996552,282.800171 247.685654,280.923737
	C248.165359,279.617523 249.265610,278.539246 250.297348,277.091919
z"/>
<path fill="#55C3FF" opacity="1.000000" stroke="none"
	d="
M203.530579,234.727158
	C210.846512,246.478088 217.880020,258.449371 224.978165,270.774323
	C223.944458,273.003296 222.846130,274.878632 221.128754,276.736816
	C218.834366,274.469910 216.959763,272.340271 215.518997,269.949219
	C209.947388,260.702789 204.514114,251.372986 199.029312,242.074249
	C200.435593,239.698685 201.841858,237.323105 203.530579,234.727158
z"/>
<path fill="#4BC8FF" opacity="1.000000" stroke="none"
	d="
M198.791046,242.280487
	C204.514114,251.372986 209.947388,260.702789 215.518997,269.949219
	C216.959763,272.340271 218.834366,274.469910 220.811676,276.888000
	C220.328522,278.951904 219.543381,280.847412 218.444763,282.893158
	C216.647858,281.854065 214.674805,280.957336 213.760818,279.427765
	C207.995743,269.779999 202.423401,260.015564 196.912033,250.219559
	C196.229980,249.007248 196.285400,247.380051 195.997833,245.555328
	C196.848648,244.272614 197.700729,243.379669 198.791046,242.280487
z"/>
<path fill="#B093FE" opacity="1.000000" stroke="none"
	d="
M270.371277,190.952820
	C267.043060,185.373199 264.039062,179.632370 261.018738,173.527603
	C267.255310,173.163666 273.508179,173.163666 280.480225,173.163666
	C277.098785,179.255600 273.897156,185.023590 270.371277,190.952820
z"/>
<path fill="#BA8EFE" opacity="1.000000" stroke="none"
	d="
M293.120453,201.766602
	C293.215088,202.070663 293.066162,202.322372 292.533630,202.787186
	C292.392365,202.571609 292.634613,202.142944 293.120453,201.766602
z"/>
<path fill="#25DCFF" opacity="1.000000" stroke="none"
	d="
M207.278091,302.962921
	C207.131821,302.709564 207.301300,302.480133 207.687546,302.155792
	C207.757233,302.337341 207.653732,302.645966 207.278091,302.962921
z"/>
<path fill="#999FFE" opacity="1.000000" stroke="none"
	d="
M255.296844,218.036743
	C255.142807,217.830444 255.295456,217.564117 255.672256,217.172455
	C255.745865,217.326645 255.648239,217.636505 255.296844,218.036743
z"/>
</svg>
