<svg xmlns="http://www.w3.org/2000/svg" xmlns:xlink="http://www.w3.org/1999/xlink" height="60" width="60" viewBox="0 0 400 400" preserveAspectRatio="xMidYMid meet" version="1.0"><defs><g/><clipPath id="0a869dd759"><path d="M 38 38 L 337.5 38 L 337.5 337.5 L 38 337.5 Z M 38 38 " clip-rule="nonzero"/></clipPath><clipPath id="2ea54f2e68"><path d="M 59.160156 248.949219 L 311.558594 248.949219 L 311.558594 318.054688 L 59.160156 318.054688 Z M 59.160156 248.949219 " clip-rule="nonzero"/></clipPath><clipPath id="aef45acb84"><path d="M 76.410156 248.949219 L 294.242188 248.949219 C 298.816406 248.949219 303.207031 250.765625 306.441406 254 C 309.675781 257.234375 311.492188 261.621094 311.492188 266.199219 L 311.492188 300.804688 C 311.492188 305.378906 309.675781 309.765625 306.441406 313 C 303.207031 316.234375 298.816406 318.054688 294.242188 318.054688 L 76.410156 318.054688 C 71.832031 318.054688 67.445312 316.234375 64.210938 313 C 60.976562 309.765625 59.160156 305.378906 59.160156 300.804688 L 59.160156 266.199219 C 59.160156 261.621094 60.976562 257.234375 64.210938 254 C 67.445312 250.765625 71.832031 248.949219 76.410156 248.949219 Z M 76.410156 248.949219 " clip-rule="nonzero"/></clipPath></defs><rect x="-37.5" width="450" fill="#ffffff" y="-37.499999" height="449.999989" fill-opacity="1"/><rect x="-37.5" width="450" fill="#ffffff" y="-37.499999" height="449.999989" fill-opacity="1"/><g clip-path="url(#0a869dd759)"><path fill="#ffffff" d="M 38.101562 149.101562 C 38.101562 111.910156 38.101562 75.019531 38.101562 38.113281 C 138.066406 38.113281 238.03125 38.113281 338.046875 38.113281 C 338.046875 138.039062 338.046875 237.980469 338.046875 338.011719 C 238.101562 338.011719 138.101562 338.011719 38.101562 338.011719 C 38.101562 275.167969 38.101562 212.285156 38.101562 149.101562 M 77.261719 66.609375 C 77.261719 120.453125 77.261719 174.296875 77.261719 228.410156 C 67.886719 228.410156 58.84375 228.410156 49.816406 228.410156 C 49.816406 263.707031 49.816406 298.738281 49.816406 333.707031 C 142.148438 333.707031 234.28125 333.707031 326.375 333.707031 C 326.375 298.480469 326.375 263.453125 326.375 228.179688 C 317.109375 228.179688 308.054688 228.179688 298.9375 228.179688 C 298.9375 215.339844 298.9375 202.742188 298.9375 190.144531 C 298.933594 162.949219 298.921875 135.757812 298.953125 108.5625 C 298.957031 105.738281 298.265625 103.496094 296.121094 101.367188 C 277.316406 82.707031 258.613281 63.945312 239.941406 45.148438 C 237.964844 43.15625 235.871094 42.246094 233.058594 42.253906 C 213.761719 42.332031 194.464844 42.292969 175.171875 42.292969 C 149.375 42.292969 123.578125 42.304688 97.785156 42.285156 C 91.816406 42.28125 86.664062 44.074219 82.445312 48.480469 C 77.667969 53.472656 76.929688 59.558594 77.261719 66.609375 Z M 77.261719 66.609375 " fill-opacity="1" fill-rule="nonzero"/></g><path fill="#050505" d="M 77.261719 66.3125 C 76.929688 59.558594 77.667969 53.472656 82.445312 48.480469 C 86.664062 44.074219 91.816406 42.28125 97.785156 42.285156 C 123.578125 42.304688 149.375 42.292969 175.171875 42.292969 C 194.464844 42.292969 213.761719 42.332031 233.058594 42.253906 C 235.871094 42.246094 237.964844 43.15625 239.941406 45.148438 C 258.613281 63.945312 277.316406 82.707031 296.121094 101.367188 C 298.265625 103.496094 298.957031 105.738281 298.953125 108.5625 C 298.921875 135.757812 298.933594 162.949219 298.9375 190.144531 C 298.9375 202.742188 298.9375 215.339844 298.9375 228.179688 C 308.054688 228.179688 317.109375 228.179688 326.375 228.179688 C 326.375 263.453125 326.375 298.480469 326.375 333.707031 C 234.28125 333.707031 142.148438 333.707031 49.816406 333.707031 C 49.816406 298.738281 49.816406 263.707031 49.816406 228.410156 C 58.84375 228.410156 67.886719 228.410156 77.261719 228.410156 C 77.261719 174.296875 77.261719 120.453125 77.261719 66.3125 M 236.582031 112.40625 C 230.902344 112.289062 228.914062 110.257812 228.914062 104.550781 C 228.910156 89.457031 228.910156 74.359375 228.910156 59.265625 C 228.910156 57.585938 228.910156 55.902344 228.910156 54.101562 C 228.09375 54.066406 227.511719 54.015625 226.933594 54.015625 C 183.945312 54.015625 140.957031 54.003906 97.972656 54.023438 C 91.746094 54.027344 89.035156 56.792969 89.035156 62.980469 C 89.027344 117.265625 89.03125 171.550781 89.03125 225.835938 C 89.03125 226.601562 89.03125 227.363281 89.03125 228.136719 C 155.238281 228.136719 221.15625 228.136719 287.015625 228.136719 C 287.015625 189.5 287.015625 151.050781 287.015625 112.40625 C 270.292969 112.40625 253.71875 112.40625 236.582031 112.40625 M 67.800781 234.347656 C 63.828125 234.347656 59.859375 234.347656 55.835938 234.347656 C 55.835938 265.664062 55.835938 296.695312 55.835938 327.664062 C 144.148438 327.664062 232.273438 327.664062 320.414062 327.664062 C 320.414062 296.511719 320.414062 265.558594 320.414062 234.347656 C 236.320312 234.347656 152.359375 234.347656 67.800781 234.347656 M 241.691406 63.335938 C 239.402344 62.371094 240.621094 64.460938 240.617188 64.828125 C 240.53125 74.507812 240.546875 84.1875 240.546875 93.867188 C 240.546875 96.039062 240.546875 98.210938 240.546875 100.410156 C 253.253906 100.410156 265.648438 100.410156 278.042969 100.410156 C 278.21875 100.171875 278.398438 99.929688 278.574219 99.691406 C 266.382812 87.675781 254.191406 75.65625 241.691406 63.335938 Z M 241.691406 63.335938 " fill-opacity="1" fill-rule="nonzero"/><path fill="#fefefe" d="M 236.863281 112.40625 C 253.71875 112.40625 270.292969 112.40625 287.015625 112.40625 C 287.015625 151.050781 287.015625 189.5 287.015625 228.136719 C 221.15625 228.136719 155.238281 228.136719 89.03125 228.136719 C 89.03125 227.363281 89.03125 226.601562 89.03125 225.835938 C 89.03125 171.550781 89.027344 117.265625 89.035156 62.980469 C 89.035156 56.792969 91.746094 54.027344 97.972656 54.023438 C 140.957031 54.003906 183.945312 54.015625 226.933594 54.015625 C 227.511719 54.015625 228.09375 54.066406 228.910156 54.101562 C 228.910156 55.902344 228.910156 57.585938 228.910156 59.265625 C 228.910156 74.359375 228.910156 89.457031 228.914062 104.550781 C 228.914062 110.257812 230.902344 112.289062 236.863281 112.40625 M 187.199219 135.582031 C 165.109375 135.582031 143.019531 135.578125 120.925781 135.589844 C 119.632812 135.59375 118.316406 135.59375 117.046875 135.816406 C 114.09375 136.328125 112.355469 138.527344 112.386719 141.496094 C 112.429688 145.183594 115.007812 147.300781 119.542969 147.304688 C 165.125 147.308594 210.707031 147.308594 256.289062 147.304688 C 257.085938 147.304688 257.898438 147.34375 258.679688 147.207031 C 262.109375 146.621094 264.179688 143.898438 263.761719 140.605469 C 263.335938 137.261719 260.957031 135.589844 256.472656 135.589844 C 233.582031 135.578125 210.691406 135.582031 187.199219 135.582031 M 241.199219 217.222656 C 246.890625 217.203125 252.589844 217.304688 258.277344 217.109375 C 261.464844 216.996094 263.714844 214.40625 263.714844 211.453125 C 263.71875 208.46875 261.503906 206.042969 258.355469 205.648438 C 257.46875 205.539062 256.5625 205.585938 255.664062 205.585938 C 226.097656 205.585938 196.53125 205.585938 166.964844 205.585938 C 166.066406 205.585938 165.15625 205.539062 164.269531 205.640625 C 161.164062 205.984375 158.855469 208.433594 158.78125 211.390625 C 158.710938 214.28125 161.035156 216.78125 164.191406 217.128906 C 165.277344 217.246094 166.386719 217.21875 167.484375 217.222656 C 191.855469 217.226562 216.226562 217.222656 241.199219 217.222656 M 119.054688 100.589844 C 116.070312 100.578125 113.753906 101.742188 112.753906 104.664062 C 111.886719 107.191406 112.589844 109.609375 114.78125 111.023438 C 116.175781 111.929688 118.121094 112.347656 119.824219 112.355469 C 145.914062 112.433594 172.003906 112.414062 198.09375 112.402344 C 198.988281 112.402344 199.902344 112.378906 200.769531 112.191406 C 203.523438 111.585938 205.539062 109.039062 205.457031 106.382812 C 205.371094 103.621094 203.367188 101.246094 200.5625 100.746094 C 199.492188 100.554688 198.371094 100.59375 197.277344 100.59375 C 171.386719 100.585938 145.496094 100.589844 119.054688 100.589844 M 121.257812 182.199219 C 142.726562 182.199219 164.195312 182.203125 185.664062 182.195312 C 186.761719 182.195312 187.871094 182.242188 188.953125 182.09375 C 192.4375 181.617188 194.605469 178.175781 193.601562 174.808594 C 192.734375 171.890625 190.882812 170.613281 187.207031 170.609375 C 164.441406 170.589844 141.675781 170.601562 118.910156 170.605469 C 118.410156 170.605469 117.910156 170.613281 117.414062 170.675781 C 114.414062 171.054688 112.382812 173.367188 112.390625 176.375 C 112.398438 179.394531 114.429688 181.769531 117.390625 182.113281 C 118.476562 182.238281 119.582031 182.175781 121.257812 182.199219 M 214.261719 170.597656 C 213.859375 170.597656 213.460938 170.597656 213.0625 170.597656 C 208.179688 170.636719 205.542969 172.671875 205.566406 176.378906 C 205.589844 180.054688 208.316406 182.191406 213.050781 182.199219 C 222.148438 182.207031 231.242188 182.203125 240.339844 182.199219 C 246.136719 182.199219 251.933594 182.257812 257.730469 182.175781 C 261.703125 182.121094 264.195312 179.320312 263.757812 175.640625 C 263.371094 172.421875 261.066406 170.617188 257.121094 170.609375 C 243.03125 170.585938 228.9375 170.597656 214.261719 170.597656 M 117 205.808594 C 113.566406 207.148438 112.070312 209.308594 112.523438 212.269531 C 112.960938 215.144531 115.320312 217.15625 118.714844 217.191406 C 126.09375 217.273438 133.476562 217.28125 140.855469 217.1875 C 144.558594 217.140625 147.226562 214.5625 147.1875 211.40625 C 147.144531 208.1875 144.488281 205.636719 140.824219 205.613281 C 133.046875 205.5625 125.269531 205.652344 117 205.808594 Z M 117 205.808594 " fill-opacity="1" fill-rule="nonzero"/><path fill="#fdfdfd" d="M 68.101562 234.347656 C 152.359375 234.347656 236.320312 234.347656 320.414062 234.347656 C 320.414062 265.558594 320.414062 296.511719 320.414062 327.664062 C 232.273438 327.664062 144.148438 327.664062 55.835938 327.664062 C 55.835938 296.695312 55.835938 265.664062 55.835938 234.347656 C 59.859375 234.347656 63.828125 234.347656 68.101562 234.347656 M 284.683594 301.539062 C 283.207031 296.238281 279.214844 294.1875 274.214844 293.671875 C 271.242188 293.367188 268.203125 293.621094 265.253906 293.210938 C 264.273438 293.074219 263.46875 291.660156 262.585938 290.828125 C 263.589844 290.351562 264.554688 289.644531 265.613281 289.4375 C 269.089844 288.757812 272.902344 288.941406 276.042969 287.558594 C 284.101562 284.019531 284.351562 272.613281 277.5 269.488281 C 277.140625 269.324219 276.6875 269.363281 276.277344 269.308594 C 276.523438 269.144531 276.769531 268.980469 277.015625 268.820312 C 279.980469 268.371094 282.941406 267.925781 286.035156 267.457031 C 285.117188 264.683594 284.402344 262.535156 283.582031 260.058594 C 277.851562 263.648438 271.71875 264.226562 265.375 264.472656 C 257.773438 264.773438 252.835938 269.628906 252.375 276.40625 C 252.050781 281.171875 254.214844 284.621094 258.429688 287.125 C 257.722656 287.742188 257.1875 288.140625 256.730469 288.621094 C 252.910156 292.625 254.105469 297.785156 259.378906 299.445312 C 261.335938 300.058594 263.488281 300.125 265.566406 300.277344 C 267.652344 300.433594 269.773438 300.234375 271.847656 300.484375 C 273.746094 300.710938 275.296875 301.707031 275.398438 303.890625 C 275.5 306.019531 274.277344 307.335938 272.289062 307.648438 C 270.039062 308 267.742188 308.117188 265.460938 308.175781 C 262.242188 308.257812 259.441406 307.546875 258.914062 303.792969 C 256.148438 303.792969 253.597656 303.792969 251.050781 303.792969 C 250.914062 309.097656 252.90625 312.117188 257.765625 313.511719 C 264.253906 315.371094 270.808594 315.261719 277.214844 313.125 C 282.746094 311.28125 284.933594 307.863281 284.683594 301.539062 M 113.691406 292.171875 C 107.132812 296.433594 101.5625 293.390625 95.824219 289.703125 C 94.285156 291.445312 92.679688 293.261719 91.085938 295.066406 C 98.136719 301.648438 109.59375 303.449219 117.867188 299.40625 C 122.671875 297.058594 125.328125 293.117188 125.566406 287.808594 C 125.808594 282.402344 123.710938 278.03125 118.734375 275.472656 C 116.355469 274.25 113.808594 273.355469 111.332031 272.324219 C 109.3125 271.488281 106.992188 271.035156 105.359375 269.726562 C 104.109375 268.722656 103.003906 266.574219 103.15625 265.070312 C 103.292969 263.710938 105.003906 261.972656 106.421875 261.421875 C 108.15625 260.746094 110.40625 260.707031 112.25 261.15625 C 114.878906 261.792969 117.339844 263.121094 120.003906 264.210938 C 121.320312 262.667969 122.738281 261.015625 124.226562 259.273438 C 118.683594 254.136719 112.253906 252.683594 105.21875 253.863281 C 97.839844 255.097656 93.574219 259.28125 92.945312 265.398438 C 92.335938 271.324219 95.390625 275.78125 102.3125 278.765625 C 105.136719 279.988281 108.132812 280.820312 110.960938 282.039062 C 115.777344 284.109375 116.734375 287.355469 113.691406 292.171875 M 245.195312 292.8125 C 247.664062 287.640625 247.929688 282.238281 246.621094 276.761719 C 244.097656 266.199219 233 261.242188 223.109375 265.875 C 212.125 271.023438 212.269531 287.402344 216.925781 294.730469 C 222.585938 303.640625 239.320312 304.378906 245.195312 292.8125 M 127.285156 266.605469 C 130.777344 277.808594 134.269531 289.007812 137.746094 300.160156 C 138.871094 300.277344 139.796875 300.371094 141.699219 300.566406 C 139.621094 302.78125 138.335938 304.769531 136.519531 305.921875 C 134.589844 307.144531 132.15625 307.578125 129.84375 308.394531 C 130.179688 310.492188 130.507812 312.523438 130.828125 314.527344 C 140.453125 314.199219 146.515625 309.710938 149.640625 300.441406 C 152.601562 291.667969 155.351562 282.820312 158.191406 274.003906 C 159.074219 271.273438 159.953125 268.542969 160.871094 265.695312 C 157.441406 265.695312 154.308594 265.695312 151.214844 265.695312 C 148.808594 275.050781 146.449219 284.214844 143.890625 294.167969 C 141.441406 284.1875 139.171875 274.933594 136.785156 265.214844 C 133.535156 265.527344 130.3125 265.835938 127.285156 266.605469 M 165.925781 299.457031 C 172.421875 302.253906 178.917969 302.464844 185.222656 299.046875 C 188.824219 297.09375 190.65625 293.90625 190.542969 289.691406 C 190.433594 285.554688 188.386719 282.699219 184.734375 281.023438 C 182.664062 280.074219 180.445312 279.460938 178.304688 278.65625 C 176.820312 278.09375 175.199219 277.683594 173.949219 276.78125 C 173.152344 276.207031 172.492188 274.816406 172.566406 273.855469 C 172.625 273.042969 173.703125 271.949219 174.566406 271.648438 C 175.824219 271.207031 177.359375 271.066406 178.664062 271.335938 C 181.140625 271.851562 183.539062 272.75 186.082031 273.519531 C 187.121094 271.960938 188.203125 270.328125 189.382812 268.546875 C 184.089844 264.71875 178.464844 263.507812 172.273438 264.847656 C 166.828125 266.027344 163.308594 269.476562 162.929688 273.976562 C 162.519531 278.882812 165.15625 282.570312 170.722656 284.6875 C 173.136719 285.605469 175.652344 286.269531 178.078125 287.160156 C 179.902344 287.828125 181.199219 289.015625 180.882812 291.199219 C 180.574219 293.332031 179.058594 294.09375 177.132812 294.441406 C 172.917969 295.203125 169.335938 293.636719 165.78125 291.304688 C 164.269531 293.035156 162.816406 294.699219 161.179688 296.574219 C 162.832031 297.578125 164.183594 298.398438 165.925781 299.457031 M 209.773438 295.675781 C 209.289062 295.074219 208.734375 293.914062 208.332031 293.96875 C 205.527344 294.324219 205.472656 292.605469 205.476562 290.636719 C 205.496094 278.265625 205.484375 265.894531 205.484375 253.523438 C 205.484375 252.5625 205.484375 251.601562 205.484375 250.445312 C 202.183594 250.703125 199.234375 250.929688 196.367188 251.152344 C 196.210938 251.496094 196.0625 251.671875 196.0625 251.851562 C 196.054688 265.316406 195.867188 278.789062 196.132812 292.25 C 196.292969 300.351562 203.230469 303.882812 211.03125 300.050781 C 210.667969 298.777344 210.289062 297.460938 209.773438 295.675781 Z M 209.773438 295.675781 " fill-opacity="1" fill-rule="nonzero"/><path fill="#f9f9f9" d="M 241.847656 63.488281 C 254.191406 75.65625 266.382812 87.675781 278.574219 99.691406 C 278.398438 99.929688 278.21875 100.171875 278.042969 100.410156 C 265.648438 100.410156 253.253906 100.410156 240.546875 100.410156 C 240.546875 98.210938 240.546875 96.039062 240.546875 93.867188 C 240.546875 84.1875 240.53125 74.507812 240.617188 64.828125 C 240.621094 64.460938 239.402344 62.371094 241.847656 63.488281 Z M 241.847656 63.488281 " fill-opacity="1" fill-rule="nonzero"/><path fill="#060606" d="M 187.5 135.582031 C 210.691406 135.582031 233.582031 135.578125 256.472656 135.589844 C 260.957031 135.589844 263.335938 137.261719 263.761719 140.605469 C 264.179688 143.898438 262.109375 146.621094 258.679688 147.207031 C 257.898438 147.34375 257.085938 147.304688 256.289062 147.304688 C 210.707031 147.308594 165.125 147.308594 119.542969 147.304688 C 115.007812 147.300781 112.429688 145.183594 112.386719 141.496094 C 112.355469 138.527344 114.09375 136.328125 117.046875 135.816406 C 118.316406 135.59375 119.632812 135.59375 120.925781 135.589844 C 143.019531 135.578125 165.109375 135.582031 187.5 135.582031 Z M 187.5 135.582031 " fill-opacity="1" fill-rule="nonzero"/><path fill="#090909" d="M 240.898438 217.222656 C 216.226562 217.222656 191.855469 217.226562 167.484375 217.222656 C 166.386719 217.21875 165.277344 217.246094 164.191406 217.128906 C 161.035156 216.78125 158.710938 214.28125 158.78125 211.390625 C 158.855469 208.433594 161.164062 205.984375 164.269531 205.640625 C 165.15625 205.539062 166.066406 205.585938 166.964844 205.585938 C 196.53125 205.585938 226.097656 205.585938 255.664062 205.585938 C 256.5625 205.585938 257.46875 205.539062 258.355469 205.648438 C 261.503906 206.042969 263.71875 208.46875 263.714844 211.453125 C 263.714844 214.40625 261.464844 216.996094 258.277344 217.109375 C 252.589844 217.304688 246.890625 217.203125 240.898438 217.222656 Z M 240.898438 217.222656 " fill-opacity="1" fill-rule="nonzero"/><path fill="#060606" d="M 119.332031 100.589844 C 145.496094 100.589844 171.386719 100.585938 197.277344 100.59375 C 198.371094 100.59375 199.492188 100.554688 200.5625 100.746094 C 203.367188 101.246094 205.371094 103.621094 205.457031 106.382812 C 205.539062 109.039062 203.523438 111.585938 200.769531 112.191406 C 199.902344 112.378906 198.988281 112.402344 198.09375 112.402344 C 172.003906 112.414062 145.914062 112.433594 119.824219 112.355469 C 118.121094 112.347656 116.175781 111.929688 114.78125 111.023438 C 112.589844 109.609375 111.886719 107.191406 112.753906 104.664062 C 113.753906 101.742188 116.070312 100.578125 119.332031 100.589844 Z M 119.332031 100.589844 " fill-opacity="1" fill-rule="nonzero"/><path fill="#010101" d="M 120.96875 182.199219 C 119.582031 182.175781 118.476562 182.238281 117.390625 182.113281 C 114.429688 181.769531 112.398438 179.394531 112.390625 176.375 C 112.382812 173.367188 114.414062 171.054688 117.414062 170.675781 C 117.910156 170.613281 118.410156 170.605469 118.910156 170.605469 C 141.675781 170.601562 164.441406 170.589844 187.207031 170.609375 C 190.882812 170.613281 192.734375 171.890625 193.601562 174.808594 C 194.605469 178.175781 192.4375 181.617188 188.953125 182.09375 C 187.871094 182.242188 186.761719 182.195312 185.664062 182.195312 C 164.195312 182.203125 142.726562 182.199219 120.96875 182.199219 Z M 120.96875 182.199219 " fill-opacity="1" fill-rule="nonzero"/><path fill="#010101" d="M 214.550781 170.597656 C 228.9375 170.597656 243.03125 170.585938 257.121094 170.609375 C 261.066406 170.617188 263.371094 172.421875 263.757812 175.640625 C 264.195312 179.320312 261.703125 182.121094 257.730469 182.175781 C 251.933594 182.257812 246.136719 182.199219 240.339844 182.199219 C 231.242188 182.203125 222.148438 182.207031 213.050781 182.199219 C 208.316406 182.191406 205.589844 180.054688 205.566406 176.378906 C 205.542969 172.671875 208.179688 170.636719 213.0625 170.597656 C 213.460938 170.597656 213.859375 170.597656 214.550781 170.597656 Z M 214.550781 170.597656 " fill-opacity="1" fill-rule="nonzero"/><path fill="#090909" d="M 117.246094 205.746094 C 125.269531 205.652344 133.046875 205.5625 140.824219 205.613281 C 144.488281 205.636719 147.144531 208.1875 147.1875 211.40625 C 147.226562 214.5625 144.558594 217.140625 140.855469 217.1875 C 133.476562 217.28125 126.09375 217.273438 118.714844 217.191406 C 115.320312 217.15625 112.960938 215.144531 112.523438 212.269531 C 112.070312 209.308594 113.566406 207.148438 117.246094 205.746094 Z M 117.246094 205.746094 " fill-opacity="1" fill-rule="nonzero"/><path fill="#050505" d="M 284.703125 301.792969 C 284.933594 307.863281 282.746094 311.28125 277.214844 313.125 C 270.808594 315.261719 264.253906 315.371094 257.765625 313.511719 C 252.90625 312.117188 250.914062 309.097656 251.050781 303.792969 C 253.597656 303.792969 256.148438 303.792969 258.914062 303.792969 C 259.441406 307.546875 262.242188 308.257812 265.460938 308.175781 C 267.742188 308.117188 270.039062 308 272.289062 307.648438 C 274.277344 307.335938 275.5 306.019531 275.398438 303.890625 C 275.296875 301.707031 273.746094 300.710938 271.847656 300.484375 C 269.773438 300.234375 267.652344 300.433594 265.566406 300.277344 C 263.488281 300.125 261.335938 300.058594 259.378906 299.445312 C 254.105469 297.785156 252.910156 292.625 256.730469 288.621094 C 257.1875 288.140625 257.722656 287.742188 258.429688 287.125 C 254.214844 284.621094 252.050781 281.171875 252.375 276.40625 C 252.835938 269.628906 257.773438 264.773438 265.375 264.472656 C 271.71875 264.226562 277.851562 263.648438 283.582031 260.058594 C 284.402344 262.535156 285.117188 264.683594 286.035156 267.457031 C 282.941406 267.925781 279.980469 268.371094 277.015625 268.820312 C 276.769531 268.980469 276.523438 269.144531 276.277344 269.308594 C 276.6875 269.363281 277.140625 269.324219 277.5 269.488281 C 284.351562 272.613281 284.101562 284.019531 276.042969 287.558594 C 272.902344 288.941406 269.089844 288.757812 265.613281 289.4375 C 264.554688 289.644531 263.589844 290.351562 262.585938 290.828125 C 263.46875 291.660156 264.273438 293.074219 265.253906 293.210938 C 268.203125 293.621094 271.242188 293.367188 274.214844 293.671875 C 279.214844 294.1875 283.207031 296.238281 284.703125 301.792969 M 270.550781 271.230469 C 269.394531 271.027344 268.230469 270.640625 267.074219 270.667969 C 264.804688 270.714844 263.03125 271.789062 262.292969 274.019531 C 261.417969 276.671875 261.148438 279.644531 263.378906 281.503906 C 264.820312 282.707031 267.417969 283.410156 269.253906 283.0625 C 273.878906 282.195312 274.785156 275.277344 270.550781 271.230469 Z M 270.550781 271.230469 " fill-opacity="1" fill-rule="nonzero"/><path fill="#050505" d="M 113.859375 292.011719 C 116.734375 287.355469 115.777344 284.109375 110.960938 282.039062 C 108.132812 280.820312 105.136719 279.988281 102.3125 278.765625 C 95.390625 275.78125 92.335938 271.324219 92.945312 265.398438 C 93.574219 259.28125 97.839844 255.097656 105.21875 253.863281 C 112.253906 252.683594 118.683594 254.136719 124.226562 259.273438 C 122.738281 261.015625 121.320312 262.667969 120.003906 264.210938 C 117.339844 263.121094 114.878906 261.792969 112.25 261.15625 C 110.40625 260.707031 108.15625 260.746094 106.421875 261.421875 C 105.003906 261.972656 103.292969 263.710938 103.15625 265.070312 C 103.003906 266.574219 104.109375 268.722656 105.359375 269.726562 C 106.992188 271.035156 109.3125 271.488281 111.332031 272.324219 C 113.808594 273.355469 116.355469 274.25 118.734375 275.472656 C 123.710938 278.03125 125.808594 282.402344 125.566406 287.808594 C 125.328125 293.117188 122.671875 297.058594 117.867188 299.40625 C 109.59375 303.449219 98.136719 301.648438 91.085938 295.066406 C 92.679688 293.261719 94.285156 291.445312 95.824219 289.703125 C 101.5625 293.390625 107.132812 296.433594 113.859375 292.011719 Z M 113.859375 292.011719 " fill-opacity="1" fill-rule="nonzero"/><path fill="#050505" d="M 245.125 293.027344 C 239.320312 304.378906 222.585938 303.640625 216.925781 294.730469 C 212.269531 287.402344 212.125 271.023438 223.109375 265.875 C 233 261.242188 244.097656 266.199219 246.621094 276.761719 C 247.929688 282.238281 247.664062 287.640625 245.125 293.027344 M 223.644531 281.03125 C 224.023438 284.179688 224.101562 287.40625 224.871094 290.457031 C 225.53125 293.082031 227.683594 294.425781 230.546875 294.4375 C 233.386719 294.445312 235.421875 293.191406 236.34375 290.574219 C 238.117188 285.523438 238.085938 280.367188 236.394531 275.308594 C 235.523438 272.703125 233.519531 271.371094 230.65625 271.375 C 227.804688 271.378906 225.839844 272.710938 224.871094 275.269531 C 224.242188 276.929688 224.058594 278.753906 223.644531 281.03125 Z M 223.644531 281.03125 " fill-opacity="1" fill-rule="nonzero"/><path fill="#040404" d="M 127.1875 266.375 C 130.3125 265.835938 133.535156 265.527344 136.785156 265.214844 C 139.171875 274.933594 141.441406 284.1875 143.890625 294.167969 C 146.449219 284.214844 148.808594 275.050781 151.214844 265.695312 C 154.308594 265.695312 157.441406 265.695312 160.871094 265.695312 C 159.953125 268.542969 159.074219 271.273438 158.191406 274.003906 C 155.351562 282.820312 152.601562 291.667969 149.640625 300.441406 C 146.515625 309.710938 140.453125 314.199219 130.828125 314.527344 C 130.507812 312.523438 130.179688 310.492188 129.84375 308.394531 C 132.15625 307.578125 134.589844 307.144531 136.519531 305.921875 C 138.335938 304.769531 139.621094 302.78125 141.699219 300.566406 C 139.796875 300.371094 138.871094 300.277344 137.746094 300.160156 C 134.269531 289.007812 130.777344 277.808594 127.1875 266.375 Z M 127.1875 266.375 " fill-opacity="1" fill-rule="nonzero"/><path fill="#050505" d="M 165.730469 299.335938 C 164.183594 298.398438 162.832031 297.578125 161.179688 296.574219 C 162.816406 294.699219 164.269531 293.035156 165.78125 291.304688 C 169.335938 293.636719 172.917969 295.203125 177.132812 294.441406 C 179.058594 294.09375 180.574219 293.332031 180.882812 291.199219 C 181.199219 289.015625 179.902344 287.828125 178.078125 287.160156 C 175.652344 286.269531 173.136719 285.605469 170.722656 284.6875 C 165.15625 282.570312 162.519531 278.882812 162.929688 273.976562 C 163.308594 269.476562 166.828125 266.027344 172.273438 264.847656 C 178.464844 263.507812 184.089844 264.71875 189.382812 268.546875 C 188.203125 270.328125 187.121094 271.960938 186.082031 273.519531 C 183.539062 272.75 181.140625 271.851562 178.664062 271.335938 C 177.359375 271.066406 175.824219 271.207031 174.566406 271.648438 C 173.703125 271.949219 172.625 273.042969 172.566406 273.855469 C 172.492188 274.816406 173.152344 276.207031 173.949219 276.78125 C 175.199219 277.683594 176.820312 278.09375 178.304688 278.65625 C 180.445312 279.460938 182.664062 280.074219 184.734375 281.023438 C 188.386719 282.699219 190.433594 285.554688 190.542969 289.691406 C 190.65625 293.90625 188.824219 297.09375 185.222656 299.046875 C 178.917969 302.464844 172.421875 302.253906 165.730469 299.335938 Z M 165.730469 299.335938 " fill-opacity="1" fill-rule="nonzero"/><path fill="#060606" d="M 209.84375 295.910156 C 210.289062 297.460938 210.667969 298.777344 211.03125 300.050781 C 203.230469 303.882812 196.292969 300.351562 196.132812 292.25 C 195.867188 278.789062 196.054688 265.316406 196.0625 251.851562 C 196.0625 251.671875 196.210938 251.496094 196.367188 251.152344 C 199.234375 250.929688 202.183594 250.703125 205.484375 250.445312 C 205.484375 251.601562 205.484375 252.5625 205.484375 253.523438 C 205.484375 265.894531 205.496094 278.265625 205.476562 290.636719 C 205.472656 292.605469 205.527344 294.324219 208.332031 293.96875 C 208.734375 293.914062 209.289062 295.074219 209.84375 295.910156 Z M 209.84375 295.910156 " fill-opacity="1" fill-rule="nonzero"/><path fill="#f9f9f9" d="M 270.769531 271.351562 C 274.785156 275.277344 273.878906 282.195312 269.253906 283.0625 C 267.417969 283.410156 264.820312 282.707031 263.378906 281.503906 C 261.148438 279.644531 261.417969 276.671875 262.292969 274.019531 C 263.03125 271.789062 264.804688 270.714844 267.074219 270.667969 C 268.230469 270.640625 269.394531 271.027344 270.769531 271.351562 Z M 270.769531 271.351562 " fill-opacity="1" fill-rule="nonzero"/><path fill="#fbfbfb" d="M 223.660156 280.765625 C 224.058594 278.753906 224.242188 276.929688 224.871094 275.269531 C 225.839844 272.710938 227.804688 271.378906 230.65625 271.375 C 233.519531 271.371094 235.523438 272.703125 236.394531 275.308594 C 238.085938 280.367188 238.117188 285.523438 236.34375 290.574219 C 235.421875 293.191406 233.386719 294.445312 230.546875 294.4375 C 227.683594 294.425781 225.53125 293.082031 224.871094 290.457031 C 224.101562 287.40625 224.023438 284.179688 223.660156 280.765625 Z M 223.660156 280.765625 " fill-opacity="1" fill-rule="nonzero"/><g clip-path="url(#2ea54f2e68)"><g clip-path="url(#aef45acb84)"><path fill="#ffffff" d="M 59.160156 248.949219 L 311.558594 248.949219 L 311.558594 318.054688 L 59.160156 318.054688 Z M 59.160156 248.949219 " fill-opacity="1" fill-rule="nonzero"/></g></g><g fill="#000000" fill-opacity="1"><g transform="translate(115.444706, 270.102857)"><g><path d="M 17.53125 -23.640625 C 16.5625 -23.640625 15.585938 -23.5625 14.609375 -23.40625 C 13.628906 -23.257812 12.65625 -23.082031 11.6875 -22.875 L 10.921875 -22.609375 L 10.921875 -2.9375 L 14.453125 -2.90625 C 16.472656 -2.90625 17.859375 -2.945312 18.609375 -3.03125 C 19.972656 -3.125 21.207031 -3.492188 22.3125 -4.140625 C 23.414062 -4.796875 24.128906 -5.863281 24.453125 -7.34375 C 24.515625 -7.550781 24.617188 -8.164062 24.765625 -9.1875 C 24.921875 -10.21875 25.015625 -11.59375 25.046875 -13.3125 C 25.078125 -14.582031 25.015625 -15.601562 24.859375 -16.375 C 24.710938 -17.144531 24.640625 -17.648438 24.640625 -17.890625 C 24.609375 -18.128906 24.582031 -18.347656 24.5625 -18.546875 C 24.550781 -18.742188 24.515625 -18.960938 24.453125 -19.203125 C 24.210938 -20.140625 23.875 -20.894531 23.4375 -21.46875 C 23 -22.039062 22.484375 -22.484375 21.890625 -22.796875 C 21.304688 -23.117188 20.644531 -23.335938 19.90625 -23.453125 C 19.164062 -23.578125 18.375 -23.640625 17.53125 -23.640625 Z M 17.578125 -29.078125 C 19.503906 -29.078125 21.304688 -28.925781 22.984375 -28.625 C 24.660156 -28.320312 26.140625 -27.765625 27.421875 -26.953125 C 28.710938 -26.140625 29.796875 -25.03125 30.671875 -23.625 C 31.546875 -22.21875 32.132812 -20.425781 32.4375 -18.25 C 32.488281 -17.832031 32.582031 -17.175781 32.71875 -16.28125 C 32.863281 -15.394531 32.9375 -14.253906 32.9375 -12.859375 C 32.9375 -12.109375 32.894531 -11.25 32.8125 -10.28125 C 32.738281 -9.3125 32.625 -8.328125 32.46875 -7.328125 C 32.320312 -6.335938 32.117188 -5.375 31.859375 -4.4375 C 31.609375 -3.5 31.316406 -2.695312 30.984375 -2.03125 C 29.441406 1.070312 26.859375 3.046875 23.234375 3.890625 C 22.628906 4.078125 21.976562 4.210938 21.28125 4.296875 C 20.59375 4.390625 19.898438 4.46875 19.203125 4.53125 C 18.453125 4.5625 17.363281 4.582031 15.9375 4.59375 C 14.519531 4.613281 12.738281 4.625 10.59375 4.625 L 3.625 4.625 L 3.625 -28.71875 L 4.265625 -28.71875 C 4.410156 -28.75 4.675781 -28.765625 5.0625 -28.765625 C 5.457031 -28.765625 6.003906 -28.765625 6.703125 -28.765625 C 7.398438 -28.765625 8.039062 -28.765625 8.625 -28.765625 C 9.21875 -28.765625 9.785156 -28.75 10.328125 -28.71875 C 10.691406 -28.71875 10.914062 -28.707031 11 -28.6875 C 11.09375 -28.675781 11.140625 -28.625 11.140625 -28.53125 C 11.140625 -28.445312 11.171875 -28.40625 11.234375 -28.40625 C 11.597656 -28.550781 12.054688 -28.660156 12.609375 -28.734375 C 13.171875 -28.816406 13.742188 -28.882812 14.328125 -28.9375 C 14.921875 -29 15.503906 -29.035156 16.078125 -29.046875 C 16.648438 -29.066406 17.148438 -29.078125 17.578125 -29.078125 Z M 17.578125 -29.078125 "/></g></g></g><g fill="#000000" fill-opacity="1"><g transform="translate(151.094807, 270.102857)"><g><path d="M 3.71875 -28.859375 C 3.75 -28.890625 7.78125 -28.90625 15.8125 -28.90625 L 27.90625 -28.90625 L 27.90625 -22.921875 L 19.4375 -22.921875 L 10.96875 -22.875 L 10.921875 -19.515625 L 10.921875 -16.21875 L 26.453125 -16.21875 L 26.453125 -10.015625 L 10.96875 -10.015625 L 10.921875 -6.484375 L 10.921875 -3.03125 L 28.40625 -3.03125 L 28.40625 0.640625 L 28.359375 4.34375 L 16.03125 4.390625 L 3.625 4.390625 L 3.625 -12.234375 C 3.625 -23.253906 3.65625 -28.796875 3.71875 -28.859375 Z M 3.71875 -28.859375 "/></g></g></g><g fill="#000000" fill-opacity="1"><g transform="translate(181.309059, 270.102857)"><g><path d="M 3.625 -16.984375 L 3.625 -28.984375 L 8.78125 -28.984375 L 13.90625 -28.9375 L 14.359375 -27.953125 C 14.835938 -26.890625 15.484375 -25.5 16.296875 -23.78125 C 17.117188 -22.0625 18.132812 -19.960938 19.34375 -17.484375 C 19.738281 -16.703125 20.039062 -16.082031 20.25 -15.625 C 20.457031 -15.175781 20.578125 -14.90625 20.609375 -14.8125 C 20.703125 -14.632812 20.769531 -14.53125 20.8125 -14.5 C 20.851562 -14.46875 20.953125 -14.453125 21.109375 -14.453125 C 21.378906 -14.515625 21.578125 -14.664062 21.703125 -14.90625 C 21.816406 -15.050781 22.054688 -15.523438 22.421875 -16.328125 C 22.785156 -17.128906 23.3125 -18.269531 24 -19.75 C 24.664062 -21.195312 25.25 -22.460938 25.75 -23.546875 C 26.25 -24.640625 26.664062 -25.578125 27 -26.359375 C 27.300781 -27.023438 27.535156 -27.550781 27.703125 -27.9375 C 27.867188 -28.332031 27.96875 -28.578125 28 -28.671875 L 28.171875 -28.984375 L 33.390625 -28.984375 L 38.640625 -28.9375 L 38.640625 -12.1875 L 38.6875 4.625 L 31.203125 4.625 L 31.203125 -8.421875 C 31.203125 -10.390625 31.203125 -12.171875 31.203125 -13.765625 C 31.203125 -15.367188 31.203125 -16.726562 31.203125 -17.84375 C 31.203125 -18.957031 31.195312 -19.8125 31.1875 -20.40625 C 31.175781 -21 31.15625 -21.28125 31.125 -21.25 C 31.09375 -21.1875 30.625 -20.097656 29.71875 -17.984375 C 28.8125 -15.867188 27.4375 -12.742188 25.59375 -8.609375 L 24.734375 -6.65625 L 17.34375 -6.65625 L 16.4375 -8.703125 C 15.71875 -10.328125 14.960938 -12.019531 14.171875 -13.78125 C 13.390625 -15.550781 12.59375 -17.4375 11.78125 -19.4375 C 11.238281 -20.726562 10.9375 -21.40625 10.875 -21.46875 L 10.875 -16.53125 C 10.90625 -14.71875 10.910156 -12.734375 10.890625 -10.578125 C 10.878906 -8.421875 10.859375 -6.039062 10.828125 -3.4375 L 10.78125 4.625 L 3.625 4.625 Z M 3.625 -16.984375 "/></g></g><g transform="translate(223.618082, 270.102857)"><g><path d="M 19.484375 -23.546875 C 17.097656 -23.546875 15.21875 -23.09375 13.84375 -22.1875 C 12.46875 -21.289062 11.566406 -19.648438 11.140625 -17.265625 C 11.023438 -16.679688 10.96875 -15.425781 10.96875 -13.5 C 10.9375 -12.53125 10.925781 -11.707031 10.9375 -11.03125 C 10.957031 -10.351562 10.976562 -9.800781 11 -9.375 C 11.15625 -7.46875 11.609375 -6.015625 12.359375 -5.015625 C 13.117188 -4.023438 14.253906 -3.320312 15.765625 -2.90625 C 16.210938 -2.78125 17.054688 -2.71875 18.296875 -2.71875 C 19.023438 -2.71875 19.742188 -2.773438 20.453125 -2.890625 C 21.160156 -3.015625 21.816406 -3.226562 22.421875 -3.53125 C 23.023438 -3.832031 23.546875 -4.25 23.984375 -4.78125 C 24.421875 -5.3125 24.742188 -5.984375 24.953125 -6.796875 C 25.078125 -7.160156 25.207031 -7.957031 25.34375 -9.1875 C 25.476562 -10.425781 25.546875 -12.132812 25.546875 -14.3125 C 25.546875 -15.394531 25.476562 -16.472656 25.34375 -17.546875 C 25.207031 -18.617188 24.925781 -19.585938 24.5 -20.453125 C 24.082031 -21.316406 23.472656 -22.023438 22.671875 -22.578125 C 21.867188 -23.140625 20.804688 -23.460938 19.484375 -23.546875 Z M 16.8125 -29.265625 C 17.5 -29.328125 18.070312 -29.328125 18.53125 -29.265625 C 19.550781 -29.234375 20.566406 -29.164062 21.578125 -29.0625 C 22.585938 -28.957031 23.566406 -28.757812 24.515625 -28.46875 C 25.472656 -28.175781 26.390625 -27.789062 27.265625 -27.3125 C 28.140625 -26.832031 28.941406 -26.195312 29.671875 -25.40625 C 31.515625 -23.570312 32.644531 -21.113281 33.0625 -18.03125 C 33.15625 -17.269531 33.203125 -15.378906 33.203125 -12.359375 C 33.171875 -10.828125 33.140625 -9.609375 33.109375 -8.703125 C 33.078125 -7.796875 33.03125 -7.175781 32.96875 -6.84375 C 32.644531 -4.90625 32.097656 -3.144531 31.328125 -1.5625 C 30.554688 0.0195312 29.320312 1.367188 27.625 2.484375 C 26.476562 3.273438 25.148438 3.875 23.640625 4.28125 C 22.128906 4.6875 20.425781 4.890625 18.53125 4.890625 C 13.695312 4.890625 9.953125 3.765625 7.296875 1.515625 C 4.640625 -0.734375 3.144531 -4.378906 2.8125 -9.421875 C 2.78125 -9.898438 2.753906 -10.476562 2.734375 -11.15625 C 2.722656 -11.84375 2.734375 -12.625 2.765625 -13.5 C 2.796875 -14.851562 2.894531 -16.15625 3.0625 -17.40625 C 3.226562 -18.664062 3.53125 -19.859375 3.96875 -20.984375 C 4.40625 -22.117188 4.984375 -23.175781 5.703125 -24.15625 C 6.429688 -25.144531 7.382812 -26.046875 8.5625 -26.859375 C 10.738281 -28.273438 13.488281 -29.078125 16.8125 -29.265625 Z M 16.8125 -29.265625 "/></g></g></g><g fill="#000000" fill-opacity="1"><g transform="translate(123.685437, 313.783785)"><g><path d="M 3.625 -12.234375 L 3.625 -28.984375 L 11.234375 -28.984375 L 11.234375 -2.8125 L 26.1875 -2.8125 L 26.1875 0.90625 L 26.140625 4.578125 L 3.671875 4.578125 Z M 3.625 -12.234375 "/></g></g></g><g fill="#000000" fill-opacity="1"><g transform="translate(151.091166, 313.783785)"><g><path d="M 19.484375 -23.546875 C 17.097656 -23.546875 15.21875 -23.09375 13.84375 -22.1875 C 12.46875 -21.289062 11.566406 -19.648438 11.140625 -17.265625 C 11.023438 -16.679688 10.96875 -15.425781 10.96875 -13.5 C 10.9375 -12.53125 10.925781 -11.707031 10.9375 -11.03125 C 10.957031 -10.351562 10.976562 -9.800781 11 -9.375 C 11.15625 -7.46875 11.609375 -6.015625 12.359375 -5.015625 C 13.117188 -4.023438 14.253906 -3.320312 15.765625 -2.90625 C 16.210938 -2.78125 17.054688 -2.71875 18.296875 -2.71875 C 19.023438 -2.71875 19.742188 -2.773438 20.453125 -2.890625 C 21.160156 -3.015625 21.816406 -3.226562 22.421875 -3.53125 C 23.023438 -3.832031 23.546875 -4.25 23.984375 -4.78125 C 24.421875 -5.3125 24.742188 -5.984375 24.953125 -6.796875 C 25.078125 -7.160156 25.207031 -7.957031 25.34375 -9.1875 C 25.476562 -10.425781 25.546875 -12.132812 25.546875 -14.3125 C 25.546875 -15.394531 25.476562 -16.472656 25.34375 -17.546875 C 25.207031 -18.617188 24.925781 -19.585938 24.5 -20.453125 C 24.082031 -21.316406 23.472656 -22.023438 22.671875 -22.578125 C 21.867188 -23.140625 20.804688 -23.460938 19.484375 -23.546875 Z M 16.8125 -29.265625 C 17.5 -29.328125 18.070312 -29.328125 18.53125 -29.265625 C 19.550781 -29.234375 20.566406 -29.164062 21.578125 -29.0625 C 22.585938 -28.957031 23.566406 -28.757812 24.515625 -28.46875 C 25.472656 -28.175781 26.390625 -27.789062 27.265625 -27.3125 C 28.140625 -26.832031 28.941406 -26.195312 29.671875 -25.40625 C 31.515625 -23.570312 32.644531 -21.113281 33.0625 -18.03125 C 33.15625 -17.269531 33.203125 -15.378906 33.203125 -12.359375 C 33.171875 -10.828125 33.140625 -9.609375 33.109375 -8.703125 C 33.078125 -7.796875 33.03125 -7.175781 32.96875 -6.84375 C 32.644531 -4.90625 32.097656 -3.144531 31.328125 -1.5625 C 30.554688 0.0195312 29.320312 1.367188 27.625 2.484375 C 26.476562 3.273438 25.148438 3.875 23.640625 4.28125 C 22.128906 4.6875 20.425781 4.890625 18.53125 4.890625 C 13.695312 4.890625 9.953125 3.765625 7.296875 1.515625 C 4.640625 -0.734375 3.144531 -4.378906 2.8125 -9.421875 C 2.78125 -9.898438 2.753906 -10.476562 2.734375 -11.15625 C 2.722656 -11.84375 2.734375 -12.625 2.765625 -13.5 C 2.796875 -14.851562 2.894531 -16.15625 3.0625 -17.40625 C 3.226562 -18.664062 3.53125 -19.859375 3.96875 -20.984375 C 4.40625 -22.117188 4.984375 -23.175781 5.703125 -24.15625 C 6.429688 -25.144531 7.382812 -26.046875 8.5625 -26.859375 C 10.738281 -28.273438 13.488281 -29.078125 16.8125 -29.265625 Z M 16.8125 -29.265625 "/></g></g></g><g fill="#000000" fill-opacity="1"><g transform="translate(187.013059, 313.783785)"><g><path d="M 20.34375 -29.21875 C 23.238281 -29.21875 26.078125 -28.820312 28.859375 -28.03125 L 29.84375 -27.765625 L 29.84375 -22.15625 L 29.390625 -22.203125 C 28.179688 -22.347656 26.972656 -22.488281 25.765625 -22.625 C 24.566406 -22.757812 23.363281 -22.828125 22.15625 -22.828125 C 20.644531 -22.828125 19.160156 -22.664062 17.703125 -22.34375 C 16.253906 -22.03125 14.898438 -21.4375 13.640625 -20.5625 C 11.160156 -18.84375 9.992188 -15.671875 10.140625 -11.046875 C 10.171875 -10.535156 10.207031 -9.992188 10.25 -9.421875 C 10.300781 -8.847656 10.359375 -8.410156 10.421875 -8.109375 C 10.722656 -7.046875 11.164062 -6.144531 11.75 -5.40625 C 12.34375 -4.664062 13.03125 -4.066406 13.8125 -3.609375 C 14.601562 -3.160156 15.472656 -2.832031 16.421875 -2.625 C 17.367188 -2.414062 18.34375 -2.3125 19.34375 -2.3125 C 20.425781 -2.3125 21.300781 -2.410156 21.96875 -2.609375 C 22.632812 -2.804688 23.144531 -3.113281 23.5 -3.53125 C 23.863281 -3.957031 24.109375 -4.5 24.234375 -5.15625 C 24.359375 -5.820312 24.421875 -6.640625 24.421875 -7.609375 L 24.421875 -9.921875 L 16.8125 -9.921875 L 16.8125 -15.9375 L 31.703125 -15.9375 L 31.75 -12.234375 C 31.78125 -10.535156 31.785156 -9.148438 31.765625 -8.078125 C 31.753906 -7.015625 31.734375 -6.253906 31.703125 -5.796875 C 31.617188 -3.890625 31.226562 -2.257812 30.53125 -0.90625 C 29.832031 0.445312 28.910156 1.554688 27.765625 2.421875 C 26.617188 3.285156 25.28125 3.910156 23.75 4.296875 C 22.226562 4.691406 20.609375 4.890625 18.890625 4.890625 C 16.804688 4.890625 14.847656 4.609375 13.015625 4.046875 C 11.191406 3.492188 9.578125 2.664062 8.171875 1.5625 C 6.765625 0.457031 5.609375 -0.914062 4.703125 -2.5625 C 3.804688 -4.207031 3.21875 -6.128906 2.9375 -8.328125 C 2.664062 -10.472656 2.660156 -12.585938 2.921875 -14.671875 C 3.179688 -16.753906 3.703125 -18.644531 4.484375 -20.34375 C 5.210938 -22.175781 6.25 -23.648438 7.59375 -24.765625 C 8.9375 -25.890625 10.515625 -26.816406 12.328125 -27.546875 C 13.617188 -28.054688 14.925781 -28.460938 16.25 -28.765625 C 17.582031 -29.066406 18.945312 -29.21875 20.34375 -29.21875 Z M 20.34375 -29.21875 "/></g></g></g><g fill="#000000" fill-opacity="1"><g transform="translate(221.168308, 313.783785)"><g><path d="M 14.171875 -29.125 C 15.984375 -29.125 17.859375 -29.078125 19.796875 -28.984375 C 20.035156 -28.953125 20.328125 -28.929688 20.671875 -28.921875 C 21.023438 -28.910156 21.457031 -28.890625 21.96875 -28.859375 C 22.9375 -28.796875 23.523438 -28.75 23.734375 -28.71875 L 25.6875 -28.625 L 25.640625 -21.78125 C 25.578125 -21.78125 25.210938 -21.832031 24.546875 -21.9375 C 23.878906 -22.050781 23.019531 -22.179688 21.96875 -22.328125 C 20.914062 -22.453125 19.867188 -22.550781 18.828125 -22.625 C 17.785156 -22.695312 16.734375 -22.734375 15.671875 -22.734375 C 15.128906 -22.734375 14.488281 -22.710938 13.75 -22.671875 C 13.007812 -22.628906 12.3125 -22.507812 11.65625 -22.3125 C 11.007812 -22.113281 10.457031 -21.800781 10 -21.375 C 9.550781 -20.957031 9.328125 -20.351562 9.328125 -19.5625 C 9.328125 -18.84375 9.566406 -18.316406 10.046875 -17.984375 C 10.535156 -17.648438 11.082031 -17.410156 11.6875 -17.265625 C 12.019531 -17.171875 12.503906 -17.078125 13.140625 -16.984375 C 13.773438 -16.890625 14.570312 -16.785156 15.53125 -16.671875 C 17.164062 -16.484375 18.539062 -16.3125 19.65625 -16.15625 C 20.769531 -16.007812 21.675781 -15.816406 22.375 -15.578125 C 23.40625 -15.242188 24.296875 -14.769531 25.046875 -14.15625 C 25.804688 -13.539062 26.425781 -12.832031 26.90625 -12.03125 C 27.382812 -11.226562 27.738281 -10.34375 27.96875 -9.375 C 28.195312 -8.40625 28.3125 -7.425781 28.3125 -6.4375 C 28.3125 -5.914062 28.300781 -5.441406 28.28125 -5.015625 C 28.269531 -4.597656 28.25 -4.238281 28.21875 -3.9375 C 27.976562 -2.15625 27.425781 -0.691406 26.5625 0.453125 C 25.707031 1.597656 24.660156 2.492188 23.421875 3.140625 C 22.179688 3.796875 20.804688 4.25 19.296875 4.5 C 17.785156 4.757812 16.257812 4.890625 14.71875 4.890625 C 12.664062 4.890625 10.613281 4.660156 8.5625 4.203125 C 6.507812 3.753906 4.53125 3.140625 2.625 2.359375 L 2.3125 2.21875 L 2.265625 -1.625 C 2.328125 -3.863281 2.375 -4.984375 2.40625 -4.984375 C 2.519531 -4.984375 2.988281 -4.878906 3.8125 -4.671875 C 5.4375 -4.273438 7.0625 -3.957031 8.6875 -3.71875 C 10.320312 -3.476562 11.984375 -3.328125 13.671875 -3.265625 C 14.273438 -3.234375 14.796875 -3.222656 15.234375 -3.234375 C 15.679688 -3.253906 16.023438 -3.28125 16.265625 -3.3125 C 17.253906 -3.457031 18.050781 -3.710938 18.65625 -4.078125 C 19.257812 -4.441406 19.726562 -4.910156 20.0625 -5.484375 C 20.25 -5.847656 20.34375 -6.375 20.34375 -7.0625 C 20.34375 -8.03125 20.144531 -8.703125 19.75 -9.078125 C 19.351562 -9.453125 18.660156 -9.734375 17.671875 -9.921875 C 17.421875 -9.984375 17.097656 -10.023438 16.703125 -10.046875 C 16.316406 -10.078125 15.835938 -10.125 15.265625 -10.1875 C 12.941406 -10.457031 10.984375 -10.773438 9.390625 -11.140625 C 7.804688 -11.503906 6.519531 -11.972656 5.53125 -12.546875 C 4.195312 -13.296875 3.242188 -14.28125 2.671875 -15.5 C 2.097656 -16.726562 1.8125 -18.160156 1.8125 -19.796875 C 1.8125 -21.941406 2.316406 -23.753906 3.328125 -25.234375 C 4.335938 -26.710938 5.75 -27.753906 7.5625 -28.359375 C 8.625 -28.722656 9.710938 -28.941406 10.828125 -29.015625 C 11.941406 -29.085938 13.054688 -29.125 14.171875 -29.125 Z M 14.171875 -29.125 "/></g></g></g></svg>
