<svg xmlns="http://www.w3.org/2000/svg" xmlns:xlink="http://www.w3.org/1999/xlink" height="60" width="60" viewBox="0 0 500 500" preserveAspectRatio="xMidYMid meet" version="1.0"><defs><clipPath id="42866d1e73"><path d="M 67 37.5 L 322 37.5 L 322 122 L 67 122 Z M 67 37.5 " clip-rule="nonzero"/></clipPath><clipPath id="9c6f85954c"><path d="M 67 253 L 323 253 L 323 337.5 L 67 337.5 Z M 67 253 " clip-rule="nonzero"/></clipPath></defs><g clip-path="url(#42866d1e73)"><path fill="#f0bf1a" d="M 321.75 96 C 308.625 111.75 289 121.875 267 121.875 L 67.75 121.875 C 92.125 72 143.375 37.5 202.75 37.5 C 251.25 37.5 294.25 60.5 321.75 96 Z M 321.75 96 " fill-opacity="1" fill-rule="nonzero"/></g><g clip-path="url(#9c6f85954c)"><path fill="#3ebeb0" d="M 322.25 278.375 C 294.75 314.25 251.5 337.5 202.75 337.5 C 143.375 337.5 92.125 303 67.75 253.125 L 267.875 253.125 C 289.75 253.125 309.25 262.875 322.25 278.375 Z M 322.25 278.375 " fill-opacity="1" fill-rule="nonzero"/></g><path fill="#07a5de" d="M 292.25 187.5 C 292.25 211 273 229.75 250.125 229.75 L 58.875 229.75 C 54.875 216.375 52.75 202.25 52.75 187.5 C 52.75 172.75 54.875 158.625 58.875 145.25 L 250.125 145.25 C 273.5 145.25 292.25 164 292.25 187.5 Z M 292.25 187.5 " fill-opacity="1" fill-rule="nonzero"/><path fill="#231f20" d="M 189.125 187.5 C 189.125 203 187.25 217 184 229.75 L 58.875 229.75 C 54.875 216.375 52.75 202.25 52.75 187.5 C 52.75 172.75 54.875 158.625 58.875 145.25 L 184 145.25 C 187.25 158 189.125 172 189.125 187.5 Z M 189.125 187.5 " fill-opacity="1" fill-rule="nonzero"/><path fill="#d7a229" d="M 127.273438 57.664062 C 101.960938 72.664062 80.875 95.164062 67.75 121.875 L 178.375 121.875 C 167.125 96.101562 149.3125 74.523438 127.273438 57.664062 Z M 127.273438 57.664062 " fill-opacity="1" fill-rule="nonzero"/><path fill="#019b8f" d="M 131.960938 319.6875 C 153.523438 302.351562 170.875 279.375 181.648438 253.125 L 67.75 253.125 C 81.8125 281.25 104.3125 304.6875 131.960938 319.6875 Z M 131.960938 319.6875 " fill-opacity="1" fill-rule="nonzero"/></svg>
