<svg height="60" width="60" viewBox="0 0 400 400" xmlns="http://www.w3.org/2000/svg">
<path fill="#FEFEFF" opacity="1.000000" stroke="none"
	d="
M239.000000,401.000000
	C159.333328,401.000000 80.166664,401.000000 1.000000,401.000000
	C1.000000,267.666656 1.000000,134.333328 1.000000,1.000000
	C134.333328,1.000000 267.666656,1.000000 401.000000,1.000000
	C401.000000,134.333328 401.000000,267.666656 401.000000,401.000000
	C347.166656,401.000000 293.333344,401.000000 239.000000,401.000000
M262.841431,388.358704
	C351.837616,357.686279 405.940491,271.578339 395.206055,177.692520
	C384.227905,81.675179 299.764404,5.707542 202.862579,5.219111
	C144.821350,4.926557 94.941162,25.570286 56.004200,68.584717
	C5.028682,124.898361 -10.123083,190.899506 13.409194,263.170288
	C47.475258,367.791748 157.390198,422.301697 262.841431,388.358704
z"/>
<path fill="#0189C5" opacity="1.000000" stroke="none"
	d="
M262.478149,388.512451
	C157.390198,422.301697 47.475258,367.791748 13.409194,263.170288
	C-10.123083,190.899506 5.028682,124.898361 56.004200,68.584717
	C94.941162,25.570286 144.821350,4.926557 202.862579,5.219111
	C299.764404,5.707542 384.227905,81.675179 395.206055,177.692520
	C405.940491,271.578339 351.837616,357.686279 262.478149,388.512451
M122.378975,143.499832
	C122.378975,136.717575 122.378975,129.935318 122.378975,122.946930
	C107.536079,122.946930 93.335030,122.946930 79.033051,122.946930
	C79.033051,175.506454 79.033051,227.719543 79.033051,279.934082
	C94.233017,279.934082 109.094780,279.934082 124.222626,279.934082
	C124.222626,277.694366 124.222549,275.877197 124.222633,274.060059
	C124.223732,250.234818 124.192230,226.409515 124.238594,202.584366
	C124.265060,188.985382 128.687866,177.087906 138.462250,167.437820
	C154.370453,151.731918 175.130814,151.395584 190.761902,167.278793
	C197.247696,173.869232 202.892502,181.465408 207.981125,189.220139
	C224.886307,214.982605 241.874313,240.718964 257.734711,267.123566
	C263.379059,276.520386 269.519714,280.268311 280.251770,279.165955
	C289.731476,278.192230 299.390259,278.962097 310.171753,278.962097
	C306.961853,273.790375 304.387360,269.604401 301.776215,265.441406
	C278.323181,228.049606 255.068314,190.531189 231.309006,153.334991
	C221.305405,137.673904 208.391159,124.848938 189.205734,121.141449
	C164.663071,116.398689 143.935822,124.218063 126.478783,141.661774
	C125.382103,142.757614 123.842857,143.410553 122.378975,143.499832
M218.325623,224.143600
	C214.278595,217.712387 210.231567,211.281174 205.829742,204.286163
	C188.108337,229.526031 170.864960,254.085068 153.402451,278.956177
	C154.617645,279.328247 155.064835,279.584259 155.512482,279.585052
	C172.006897,279.614166 188.502274,279.698395 204.994278,279.501923
	C206.578232,279.483063 208.653748,278.059143 209.631302,276.673767
	C216.352859,267.148132 222.758163,257.399506 229.467270,247.864792
	C231.122238,245.512833 230.861374,243.882141 229.384094,241.658447
	C225.698654,236.110901 222.265518,230.395752 218.325623,224.143600
M301.089203,148.587875
	C307.614746,139.937424 314.140259,131.286987 321.343384,121.738297
	C303.473267,121.738297 287.151855,121.657013 270.834259,121.868706
	C269.266693,121.889038 267.223724,123.384315 266.248230,124.784744
	C259.487946,134.489853 253.038101,144.411148 246.285034,154.121445
	C244.537796,156.633804 244.799774,158.422928 246.422287,160.789871
	C251.414047,168.071884 256.192169,175.500244 261.060944,182.866684
	C263.209869,186.117935 265.377258,189.356964 267.826477,193.037689
	C279.139709,177.925797 289.905548,163.545074 301.089203,148.587875
z"/>
<path fill="#FDFEFF" opacity="1.000000" stroke="none"
	d="
M122.444244,143.884674
	C123.842857,143.410553 125.382103,142.757614 126.478783,141.661774
	C143.935822,124.218063 164.663071,116.398689 189.205734,121.141449
	C208.391159,124.848938 221.305405,137.673904 231.309006,153.334991
	C255.068314,190.531189 278.323181,228.049606 301.776215,265.441406
	C304.387360,269.604401 306.961853,273.790375 310.171753,278.962097
	C299.390259,278.962097 289.731476,278.192230 280.251770,279.165955
	C269.519714,280.268311 263.379059,276.520386 257.734711,267.123566
	C241.874313,240.718964 224.886307,214.982605 207.981125,189.220139
	C202.892502,181.465408 197.247696,173.869232 190.761902,167.278793
	C175.130814,151.395584 154.370453,151.731918 138.462250,167.437820
	C128.687866,177.087906 124.265060,188.985382 124.238594,202.584366
	C124.192230,226.409515 124.223732,250.234818 124.222633,274.060059
	C124.222549,275.877197 124.222626,277.694366 124.222626,279.934082
	C109.094780,279.934082 94.233017,279.934082 79.033051,279.934082
	C79.033051,227.719543 79.033051,175.506454 79.033051,122.946930
	C93.335030,122.946930 107.536079,122.946930 122.378975,122.946930
	C122.378975,129.935318 122.378975,136.717575 122.444244,143.884674
z"/>
<path fill="#FAFDFE" opacity="1.000000" stroke="none"
	d="
M218.528351,224.445740
	C222.265518,230.395752 225.698654,236.110901 229.384094,241.658447
	C230.861374,243.882141 231.122238,245.512833 229.467270,247.864792
	C222.758163,257.399506 216.352859,267.148132 209.631302,276.673767
	C208.653748,278.059143 206.578232,279.483063 204.994278,279.501923
	C188.502274,279.698395 172.006897,279.614166 155.512482,279.585052
	C155.064835,279.584259 154.617645,279.328247 153.402451,278.956177
	C170.864960,254.085068 188.108337,229.526031 205.829742,204.286163
	C210.231567,211.281174 214.278595,217.712387 218.528351,224.445740
z"/>
<path fill="#FCFEFE" opacity="1.000000" stroke="none"
	d="
M300.880310,148.876099
	C289.905548,163.545074 279.139709,177.925797 267.826477,193.037689
	C265.377258,189.356964 263.209869,186.117935 261.060944,182.866684
	C256.192169,175.500244 251.414047,168.071884 246.422287,160.789871
	C244.799774,158.422928 244.537796,156.633804 246.285034,154.121445
	C253.038101,144.411148 259.487946,134.489853 266.248230,124.784744
	C267.223724,123.384315 269.266693,121.889038 270.834259,121.868706
	C287.151855,121.657013 303.473267,121.738297 321.343384,121.738297
	C314.140259,131.286987 307.614746,139.937424 300.880310,148.876099
z"/>
</svg>
