<svg xmlns="http://www.w3.org/2000/svg" xmlns:xlink="http://www.w3.org/1999/xlink" height="60" width="60" viewBox="0 0 350 350" preserveAspectRatio="xMidYMid meet" version="1.0"><defs><g/><clipPath id="7cecb0f365"><path d="M 38 38 L 337.5 38 L 337.5 337.5 L 38 337.5 Z M 38 38 " clip-rule="nonzero"/></clipPath><clipPath id="b873399177"><path d="M 63.507812 238.605469 L 311.777344 238.605469 L 311.777344 318.054688 L 63.507812 318.054688 Z M 63.507812 238.605469 " clip-rule="nonzero"/></clipPath><clipPath id="aeead3a99a"><path d="M 80.757812 238.605469 L 294.242188 238.605469 C 298.816406 238.605469 303.207031 240.425781 306.441406 243.660156 C 309.675781 246.894531 311.492188 251.28125 311.492188 255.855469 L 311.492188 300.804688 C 311.492188 305.378906 309.675781 309.765625 306.441406 313 C 303.207031 316.234375 298.816406 318.054688 294.242188 318.054688 L 80.757812 318.054688 C 76.183594 318.054688 71.792969 316.234375 68.558594 313 C 65.324219 309.765625 63.507812 305.378906 63.507812 300.804688 L 63.507812 255.855469 C 63.507812 251.28125 65.324219 246.894531 68.558594 243.660156 C 71.792969 240.425781 76.183594 238.605469 80.757812 238.605469 Z M 80.757812 238.605469 " clip-rule="nonzero"/></clipPath></defs><g clip-path="url(#7cecb0f365)"><path fill="#ffffff" d="M 38.101562 149.101562 C 38.101562 111.910156 38.101562 75.019531 38.101562 38.113281 C 138.066406 38.113281 238.03125 38.113281 338.046875 38.113281 C 338.046875 138.039062 338.046875 237.980469 338.046875 338.011719 C 238.101562 338.011719 138.101562 338.011719 38.101562 338.011719 C 38.101562 275.167969 38.101562 212.285156 38.101562 149.101562 M 77.261719 66.609375 C 77.261719 120.453125 77.261719 174.296875 77.261719 228.410156 C 67.886719 228.410156 58.84375 228.410156 49.816406 228.410156 C 49.816406 263.707031 49.816406 298.738281 49.816406 333.707031 C 142.148438 333.707031 234.28125 333.707031 326.375 333.707031 C 326.375 298.480469 326.375 263.453125 326.375 228.179688 C 317.109375 228.179688 308.054688 228.179688 298.9375 228.179688 C 298.9375 215.339844 298.9375 202.742188 298.9375 190.144531 C 298.933594 162.949219 298.921875 135.757812 298.953125 108.5625 C 298.957031 105.738281 298.265625 103.496094 296.121094 101.367188 C 277.316406 82.707031 258.613281 63.945312 239.941406 45.148438 C 237.964844 43.15625 235.871094 42.246094 233.058594 42.253906 C 213.761719 42.332031 194.464844 42.292969 175.171875 42.292969 C 149.375 42.292969 123.578125 42.304688 97.785156 42.285156 C 91.816406 42.28125 86.664062 44.074219 82.445312 48.480469 C 77.667969 53.472656 76.929688 59.558594 77.261719 66.609375 Z M 77.261719 66.609375 " fill-opacity="1" fill-rule="nonzero"/></g><path fill="#050505" d="M 77.261719 66.3125 C 76.929688 59.558594 77.667969 53.472656 82.445312 48.480469 C 86.664062 44.074219 91.816406 42.28125 97.785156 42.285156 C 123.578125 42.304688 149.375 42.292969 175.171875 42.292969 C 194.464844 42.292969 213.761719 42.332031 233.058594 42.253906 C 235.871094 42.246094 237.964844 43.15625 239.941406 45.148438 C 258.613281 63.945312 277.316406 82.707031 296.121094 101.367188 C 298.265625 103.496094 298.957031 105.738281 298.953125 108.5625 C 298.921875 135.757812 298.933594 162.949219 298.9375 190.144531 C 298.9375 202.742188 298.9375 215.339844 298.9375 228.179688 C 308.054688 228.179688 317.109375 228.179688 326.375 228.179688 C 326.375 263.453125 326.375 298.480469 326.375 333.707031 C 234.28125 333.707031 142.148438 333.707031 49.816406 333.707031 C 49.816406 298.738281 49.816406 263.707031 49.816406 228.410156 C 58.84375 228.410156 67.886719 228.410156 77.261719 228.410156 C 77.261719 174.296875 77.261719 120.453125 77.261719 66.3125 M 236.582031 112.40625 C 230.902344 112.289062 228.914062 110.257812 228.914062 104.550781 C 228.910156 89.457031 228.910156 74.359375 228.910156 59.265625 C 228.910156 57.585938 228.910156 55.902344 228.910156 54.101562 C 228.09375 54.066406 227.511719 54.015625 226.933594 54.015625 C 183.945312 54.015625 140.957031 54.003906 97.972656 54.023438 C 91.746094 54.027344 89.035156 56.792969 89.035156 62.980469 C 89.027344 117.265625 89.03125 171.550781 89.03125 225.835938 C 89.03125 226.601562 89.03125 227.363281 89.03125 228.136719 C 155.238281 228.136719 221.15625 228.136719 287.015625 228.136719 C 287.015625 189.5 287.015625 151.050781 287.015625 112.40625 C 270.292969 112.40625 253.71875 112.40625 236.582031 112.40625 M 67.800781 234.347656 C 63.828125 234.347656 59.859375 234.347656 55.835938 234.347656 C 55.835938 265.664062 55.835938 296.695312 55.835938 327.664062 C 144.148438 327.664062 232.273438 327.664062 320.414062 327.664062 C 320.414062 296.511719 320.414062 265.558594 320.414062 234.347656 C 236.320312 234.347656 152.359375 234.347656 67.800781 234.347656 M 241.691406 63.335938 C 239.402344 62.371094 240.621094 64.460938 240.617188 64.828125 C 240.53125 74.507812 240.546875 84.1875 240.546875 93.867188 C 240.546875 96.039062 240.546875 98.210938 240.546875 100.410156 C 253.253906 100.410156 265.648438 100.410156 278.042969 100.410156 C 278.21875 100.171875 278.398438 99.929688 278.574219 99.691406 C 266.382812 87.675781 254.191406 75.65625 241.691406 63.335938 Z M 241.691406 63.335938 " fill-opacity="1" fill-rule="nonzero"/><path fill="#fefefe" d="M 236.863281 112.40625 C 253.71875 112.40625 270.292969 112.40625 287.015625 112.40625 C 287.015625 151.050781 287.015625 189.5 287.015625 228.136719 C 221.15625 228.136719 155.238281 228.136719 89.03125 228.136719 C 89.03125 227.363281 89.03125 226.601562 89.03125 225.835938 C 89.03125 171.550781 89.027344 117.265625 89.035156 62.980469 C 89.035156 56.792969 91.746094 54.027344 97.972656 54.023438 C 140.957031 54.003906 183.945312 54.015625 226.933594 54.015625 C 227.511719 54.015625 228.09375 54.066406 228.910156 54.101562 C 228.910156 55.902344 228.910156 57.585938 228.910156 59.265625 C 228.910156 74.359375 228.910156 89.457031 228.914062 104.550781 C 228.914062 110.257812 230.902344 112.289062 236.863281 112.40625 M 187.199219 135.582031 C 165.109375 135.582031 143.019531 135.578125 120.925781 135.589844 C 119.632812 135.59375 118.316406 135.59375 117.046875 135.816406 C 114.09375 136.328125 112.355469 138.527344 112.386719 141.496094 C 112.429688 145.183594 115.007812 147.300781 119.542969 147.304688 C 165.125 147.308594 210.707031 147.308594 256.289062 147.304688 C 257.085938 147.304688 257.898438 147.34375 258.679688 147.207031 C 262.109375 146.621094 264.179688 143.898438 263.761719 140.605469 C 263.335938 137.261719 260.957031 135.589844 256.472656 135.589844 C 233.582031 135.578125 210.691406 135.582031 187.199219 135.582031 M 241.199219 217.222656 C 246.890625 217.203125 252.589844 217.304688 258.277344 217.109375 C 261.464844 216.996094 263.714844 214.40625 263.714844 211.453125 C 263.71875 208.46875 261.503906 206.042969 258.355469 205.648438 C 257.46875 205.539062 256.5625 205.585938 255.664062 205.585938 C 226.097656 205.585938 196.53125 205.585938 166.964844 205.585938 C 166.066406 205.585938 165.15625 205.539062 164.269531 205.640625 C 161.164062 205.984375 158.855469 208.433594 158.78125 211.390625 C 158.710938 214.28125 161.035156 216.78125 164.191406 217.128906 C 165.277344 217.246094 166.386719 217.21875 167.484375 217.222656 C 191.855469 217.226562 216.226562 217.222656 241.199219 217.222656 M 119.054688 100.589844 C 116.070312 100.578125 113.753906 101.742188 112.753906 104.664062 C 111.886719 107.191406 112.589844 109.609375 114.78125 111.023438 C 116.175781 111.929688 118.121094 112.347656 119.824219 112.355469 C 145.914062 112.433594 172.003906 112.414062 198.09375 112.402344 C 198.988281 112.402344 199.902344 112.378906 200.769531 112.191406 C 203.523438 111.585938 205.539062 109.039062 205.457031 106.382812 C 205.371094 103.621094 203.367188 101.246094 200.5625 100.746094 C 199.492188 100.554688 198.371094 100.59375 197.277344 100.59375 C 171.386719 100.585938 145.496094 100.589844 119.054688 100.589844 M 121.257812 182.199219 C 142.726562 182.199219 164.195312 182.203125 185.664062 182.195312 C 186.761719 182.195312 187.871094 182.242188 188.953125 182.09375 C 192.4375 181.617188 194.605469 178.175781 193.601562 174.808594 C 192.734375 171.890625 190.882812 170.613281 187.207031 170.609375 C 164.441406 170.589844 141.675781 170.601562 118.910156 170.605469 C 118.410156 170.605469 117.910156 170.613281 117.414062 170.675781 C 114.414062 171.054688 112.382812 173.367188 112.390625 176.375 C 112.398438 179.394531 114.429688 181.769531 117.390625 182.113281 C 118.476562 182.238281 119.582031 182.175781 121.257812 182.199219 M 214.261719 170.597656 C 213.859375 170.597656 213.460938 170.597656 213.0625 170.597656 C 208.179688 170.636719 205.542969 172.671875 205.566406 176.378906 C 205.589844 180.054688 208.316406 182.191406 213.050781 182.199219 C 222.148438 182.207031 231.242188 182.203125 240.339844 182.199219 C 246.136719 182.199219 251.933594 182.257812 257.730469 182.175781 C 261.703125 182.121094 264.195312 179.320312 263.757812 175.640625 C 263.371094 172.421875 261.066406 170.617188 257.121094 170.609375 C 243.03125 170.585938 228.9375 170.597656 214.261719 170.597656 M 117 205.808594 C 113.566406 207.148438 112.070312 209.308594 112.523438 212.269531 C 112.960938 215.144531 115.320312 217.15625 118.714844 217.191406 C 126.09375 217.273438 133.476562 217.28125 140.855469 217.1875 C 144.558594 217.140625 147.226562 214.5625 147.1875 211.40625 C 147.144531 208.1875 144.488281 205.636719 140.824219 205.613281 C 133.046875 205.5625 125.269531 205.652344 117 205.808594 Z M 117 205.808594 " fill-opacity="1" fill-rule="nonzero"/><path fill="#fdfdfd" d="M 68.101562 234.347656 C 152.359375 234.347656 236.320312 234.347656 320.414062 234.347656 C 320.414062 265.558594 320.414062 296.511719 320.414062 327.664062 C 232.273438 327.664062 144.148438 327.664062 55.835938 327.664062 C 55.835938 296.695312 55.835938 265.664062 55.835938 234.347656 C 59.859375 234.347656 63.828125 234.347656 68.101562 234.347656 M 284.683594 301.539062 C 283.207031 296.238281 279.214844 294.1875 274.214844 293.671875 C 271.242188 293.367188 268.203125 293.621094 265.253906 293.210938 C 264.273438 293.074219 263.46875 291.660156 262.585938 290.828125 C 263.589844 290.351562 264.554688 289.644531 265.613281 289.4375 C 269.089844 288.757812 272.902344 288.941406 276.042969 287.558594 C 284.101562 284.019531 284.351562 272.613281 277.5 269.488281 C 277.140625 269.324219 276.6875 269.363281 276.277344 269.308594 C 276.523438 269.144531 276.769531 268.980469 277.015625 268.820312 C 279.980469 268.371094 282.941406 267.925781 286.035156 267.457031 C 285.117188 264.683594 284.402344 262.535156 283.582031 260.058594 C 277.851562 263.648438 271.71875 264.226562 265.375 264.472656 C 257.773438 264.773438 252.835938 269.628906 252.375 276.40625 C 252.050781 281.171875 254.214844 284.621094 258.429688 287.125 C 257.722656 287.742188 257.1875 288.140625 256.730469 288.621094 C 252.910156 292.625 254.105469 297.785156 259.378906 299.445312 C 261.335938 300.058594 263.488281 300.125 265.566406 300.277344 C 267.652344 300.433594 269.773438 300.234375 271.847656 300.484375 C 273.746094 300.710938 275.296875 301.707031 275.398438 303.890625 C 275.5 306.019531 274.277344 307.335938 272.289062 307.648438 C 270.039062 308 267.742188 308.117188 265.460938 308.175781 C 262.242188 308.257812 259.441406 307.546875 258.914062 303.792969 C 256.148438 303.792969 253.597656 303.792969 251.050781 303.792969 C 250.914062 309.097656 252.90625 312.117188 257.765625 313.511719 C 264.253906 315.371094 270.808594 315.261719 277.214844 313.125 C 282.746094 311.28125 284.933594 307.863281 284.683594 301.539062 M 113.691406 292.171875 C 107.132812 296.433594 101.5625 293.390625 95.824219 289.703125 C 94.285156 291.445312 92.679688 293.261719 91.085938 295.066406 C 98.136719 301.648438 109.59375 303.449219 117.867188 299.40625 C 122.671875 297.058594 125.328125 293.117188 125.566406 287.808594 C 125.808594 282.402344 123.710938 278.03125 118.734375 275.472656 C 116.355469 274.25 113.808594 273.355469 111.332031 272.324219 C 109.3125 271.488281 106.992188 271.035156 105.359375 269.726562 C 104.109375 268.722656 103.003906 266.574219 103.15625 265.070312 C 103.292969 263.710938 105.003906 261.972656 106.421875 261.421875 C 108.15625 260.746094 110.40625 260.707031 112.25 261.15625 C 114.878906 261.792969 117.339844 263.121094 120.003906 264.210938 C 121.320312 262.667969 122.738281 261.015625 124.226562 259.273438 C 118.683594 254.136719 112.253906 252.683594 105.21875 253.863281 C 97.839844 255.097656 93.574219 259.28125 92.945312 265.398438 C 92.335938 271.324219 95.390625 275.78125 102.3125 278.765625 C 105.136719 279.988281 108.132812 280.820312 110.960938 282.039062 C 115.777344 284.109375 116.734375 287.355469 113.691406 292.171875 M 245.195312 292.8125 C 247.664062 287.640625 247.929688 282.238281 246.621094 276.761719 C 244.097656 266.199219 233 261.242188 223.109375 265.875 C 212.125 271.023438 212.269531 287.402344 216.925781 294.730469 C 222.585938 303.640625 239.320312 304.378906 245.195312 292.8125 M 127.285156 266.605469 C 130.777344 277.808594 134.269531 289.007812 137.746094 300.160156 C 138.871094 300.277344 139.796875 300.371094 141.699219 300.566406 C 139.621094 302.78125 138.335938 304.769531 136.519531 305.921875 C 134.589844 307.144531 132.15625 307.578125 129.84375 308.394531 C 130.179688 310.492188 130.507812 312.523438 130.828125 314.527344 C 140.453125 314.199219 146.515625 309.710938 149.640625 300.441406 C 152.601562 291.667969 155.351562 282.820312 158.191406 274.003906 C 159.074219 271.273438 159.953125 268.542969 160.871094 265.695312 C 157.441406 265.695312 154.308594 265.695312 151.214844 265.695312 C 148.808594 275.050781 146.449219 284.214844 143.890625 294.167969 C 141.441406 284.1875 139.171875 274.933594 136.785156 265.214844 C 133.535156 265.527344 130.3125 265.835938 127.285156 266.605469 M 165.925781 299.457031 C 172.421875 302.253906 178.917969 302.464844 185.222656 299.046875 C 188.824219 297.09375 190.65625 293.90625 190.542969 289.691406 C 190.433594 285.554688 188.386719 282.699219 184.734375 281.023438 C 182.664062 280.074219 180.445312 279.460938 178.304688 278.65625 C 176.820312 278.09375 175.199219 277.683594 173.949219 276.78125 C 173.152344 276.207031 172.492188 274.816406 172.566406 273.855469 C 172.625 273.042969 173.703125 271.949219 174.566406 271.648438 C 175.824219 271.207031 177.359375 271.066406 178.664062 271.335938 C 181.140625 271.851562 183.539062 272.75 186.082031 273.519531 C 187.121094 271.960938 188.203125 270.328125 189.382812 268.546875 C 184.089844 264.71875 178.464844 263.507812 172.273438 264.847656 C 166.828125 266.027344 163.308594 269.476562 162.929688 273.976562 C 162.519531 278.882812 165.15625 282.570312 170.722656 284.6875 C 173.136719 285.605469 175.652344 286.269531 178.078125 287.160156 C 179.902344 287.828125 181.199219 289.015625 180.882812 291.199219 C 180.574219 293.332031 179.058594 294.09375 177.132812 294.441406 C 172.917969 295.203125 169.335938 293.636719 165.78125 291.304688 C 164.269531 293.035156 162.816406 294.699219 161.179688 296.574219 C 162.832031 297.578125 164.183594 298.398438 165.925781 299.457031 M 209.773438 295.675781 C 209.289062 295.074219 208.734375 293.914062 208.332031 293.96875 C 205.527344 294.324219 205.472656 292.605469 205.476562 290.636719 C 205.496094 278.265625 205.484375 265.894531 205.484375 253.523438 C 205.484375 252.5625 205.484375 251.601562 205.484375 250.445312 C 202.183594 250.703125 199.234375 250.929688 196.367188 251.152344 C 196.210938 251.496094 196.0625 251.671875 196.0625 251.851562 C 196.054688 265.316406 195.867188 278.789062 196.132812 292.25 C 196.292969 300.351562 203.230469 303.882812 211.03125 300.050781 C 210.667969 298.777344 210.289062 297.460938 209.773438 295.675781 Z M 209.773438 295.675781 " fill-opacity="1" fill-rule="nonzero"/><path fill="#f9f9f9" d="M 241.847656 63.488281 C 254.191406 75.65625 266.382812 87.675781 278.574219 99.691406 C 278.398438 99.929688 278.21875 100.171875 278.042969 100.410156 C 265.648438 100.410156 253.253906 100.410156 240.546875 100.410156 C 240.546875 98.210938 240.546875 96.039062 240.546875 93.867188 C 240.546875 84.1875 240.53125 74.507812 240.617188 64.828125 C 240.621094 64.460938 239.402344 62.371094 241.847656 63.488281 Z M 241.847656 63.488281 " fill-opacity="1" fill-rule="nonzero"/><path fill="#060606" d="M 187.5 135.582031 C 210.691406 135.582031 233.582031 135.578125 256.472656 135.589844 C 260.957031 135.589844 263.335938 137.261719 263.761719 140.605469 C 264.179688 143.898438 262.109375 146.621094 258.679688 147.207031 C 257.898438 147.34375 257.085938 147.304688 256.289062 147.304688 C 210.707031 147.308594 165.125 147.308594 119.542969 147.304688 C 115.007812 147.300781 112.429688 145.183594 112.386719 141.496094 C 112.355469 138.527344 114.09375 136.328125 117.046875 135.816406 C 118.316406 135.59375 119.632812 135.59375 120.925781 135.589844 C 143.019531 135.578125 165.109375 135.582031 187.5 135.582031 Z M 187.5 135.582031 " fill-opacity="1" fill-rule="nonzero"/><path fill="#090909" d="M 240.898438 217.222656 C 216.226562 217.222656 191.855469 217.226562 167.484375 217.222656 C 166.386719 217.21875 165.277344 217.246094 164.191406 217.128906 C 161.035156 216.78125 158.710938 214.28125 158.78125 211.390625 C 158.855469 208.433594 161.164062 205.984375 164.269531 205.640625 C 165.15625 205.539062 166.066406 205.585938 166.964844 205.585938 C 196.53125 205.585938 226.097656 205.585938 255.664062 205.585938 C 256.5625 205.585938 257.46875 205.539062 258.355469 205.648438 C 261.503906 206.042969 263.71875 208.46875 263.714844 211.453125 C 263.714844 214.40625 261.464844 216.996094 258.277344 217.109375 C 252.589844 217.304688 246.890625 217.203125 240.898438 217.222656 Z M 240.898438 217.222656 " fill-opacity="1" fill-rule="nonzero"/><path fill="#060606" d="M 119.332031 100.589844 C 145.496094 100.589844 171.386719 100.585938 197.277344 100.59375 C 198.371094 100.59375 199.492188 100.554688 200.5625 100.746094 C 203.367188 101.246094 205.371094 103.621094 205.457031 106.382812 C 205.539062 109.039062 203.523438 111.585938 200.769531 112.191406 C 199.902344 112.378906 198.988281 112.402344 198.09375 112.402344 C 172.003906 112.414062 145.914062 112.433594 119.824219 112.355469 C 118.121094 112.347656 116.175781 111.929688 114.78125 111.023438 C 112.589844 109.609375 111.886719 107.191406 112.753906 104.664062 C 113.753906 101.742188 116.070312 100.578125 119.332031 100.589844 Z M 119.332031 100.589844 " fill-opacity="1" fill-rule="nonzero"/><path fill="#010101" d="M 120.96875 182.199219 C 119.582031 182.175781 118.476562 182.238281 117.390625 182.113281 C 114.429688 181.769531 112.398438 179.394531 112.390625 176.375 C 112.382812 173.367188 114.414062 171.054688 117.414062 170.675781 C 117.910156 170.613281 118.410156 170.605469 118.910156 170.605469 C 141.675781 170.601562 164.441406 170.589844 187.207031 170.609375 C 190.882812 170.613281 192.734375 171.890625 193.601562 174.808594 C 194.605469 178.175781 192.4375 181.617188 188.953125 182.09375 C 187.871094 182.242188 186.761719 182.195312 185.664062 182.195312 C 164.195312 182.203125 142.726562 182.199219 120.96875 182.199219 Z M 120.96875 182.199219 " fill-opacity="1" fill-rule="nonzero"/><path fill="#010101" d="M 214.550781 170.597656 C 228.9375 170.597656 243.03125 170.585938 257.121094 170.609375 C 261.066406 170.617188 263.371094 172.421875 263.757812 175.640625 C 264.195312 179.320312 261.703125 182.121094 257.730469 182.175781 C 251.933594 182.257812 246.136719 182.199219 240.339844 182.199219 C 231.242188 182.203125 222.148438 182.207031 213.050781 182.199219 C 208.316406 182.191406 205.589844 180.054688 205.566406 176.378906 C 205.542969 172.671875 208.179688 170.636719 213.0625 170.597656 C 213.460938 170.597656 213.859375 170.597656 214.550781 170.597656 Z M 214.550781 170.597656 " fill-opacity="1" fill-rule="nonzero"/><path fill="#090909" d="M 117.246094 205.746094 C 125.269531 205.652344 133.046875 205.5625 140.824219 205.613281 C 144.488281 205.636719 147.144531 208.1875 147.1875 211.40625 C 147.226562 214.5625 144.558594 217.140625 140.855469 217.1875 C 133.476562 217.28125 126.09375 217.273438 118.714844 217.191406 C 115.320312 217.15625 112.960938 215.144531 112.523438 212.269531 C 112.070312 209.308594 113.566406 207.148438 117.246094 205.746094 Z M 117.246094 205.746094 " fill-opacity="1" fill-rule="nonzero"/><path fill="#050505" d="M 284.703125 301.792969 C 284.933594 307.863281 282.746094 311.28125 277.214844 313.125 C 270.808594 315.261719 264.253906 315.371094 257.765625 313.511719 C 252.90625 312.117188 250.914062 309.097656 251.050781 303.792969 C 253.597656 303.792969 256.148438 303.792969 258.914062 303.792969 C 259.441406 307.546875 262.242188 308.257812 265.460938 308.175781 C 267.742188 308.117188 270.039062 308 272.289062 307.648438 C 274.277344 307.335938 275.5 306.019531 275.398438 303.890625 C 275.296875 301.707031 273.746094 300.710938 271.847656 300.484375 C 269.773438 300.234375 267.652344 300.433594 265.566406 300.277344 C 263.488281 300.125 261.335938 300.058594 259.378906 299.445312 C 254.105469 297.785156 252.910156 292.625 256.730469 288.621094 C 257.1875 288.140625 257.722656 287.742188 258.429688 287.125 C 254.214844 284.621094 252.050781 281.171875 252.375 276.40625 C 252.835938 269.628906 257.773438 264.773438 265.375 264.472656 C 271.71875 264.226562 277.851562 263.648438 283.582031 260.058594 C 284.402344 262.535156 285.117188 264.683594 286.035156 267.457031 C 282.941406 267.925781 279.980469 268.371094 277.015625 268.820312 C 276.769531 268.980469 276.523438 269.144531 276.277344 269.308594 C 276.6875 269.363281 277.140625 269.324219 277.5 269.488281 C 284.351562 272.613281 284.101562 284.019531 276.042969 287.558594 C 272.902344 288.941406 269.089844 288.757812 265.613281 289.4375 C 264.554688 289.644531 263.589844 290.351562 262.585938 290.828125 C 263.46875 291.660156 264.273438 293.074219 265.253906 293.210938 C 268.203125 293.621094 271.242188 293.367188 274.214844 293.671875 C 279.214844 294.1875 283.207031 296.238281 284.703125 301.792969 M 270.550781 271.230469 C 269.394531 271.027344 268.230469 270.640625 267.074219 270.667969 C 264.804688 270.714844 263.03125 271.789062 262.292969 274.019531 C 261.417969 276.671875 261.148438 279.644531 263.378906 281.503906 C 264.820312 282.707031 267.417969 283.410156 269.253906 283.0625 C 273.878906 282.195312 274.785156 275.277344 270.550781 271.230469 Z M 270.550781 271.230469 " fill-opacity="1" fill-rule="nonzero"/><path fill="#050505" d="M 113.859375 292.011719 C 116.734375 287.355469 115.777344 284.109375 110.960938 282.039062 C 108.132812 280.820312 105.136719 279.988281 102.3125 278.765625 C 95.390625 275.78125 92.335938 271.324219 92.945312 265.398438 C 93.574219 259.28125 97.839844 255.097656 105.21875 253.863281 C 112.253906 252.683594 118.683594 254.136719 124.226562 259.273438 C 122.738281 261.015625 121.320312 262.667969 120.003906 264.210938 C 117.339844 263.121094 114.878906 261.792969 112.25 261.15625 C 110.40625 260.707031 108.15625 260.746094 106.421875 261.421875 C 105.003906 261.972656 103.292969 263.710938 103.15625 265.070312 C 103.003906 266.574219 104.109375 268.722656 105.359375 269.726562 C 106.992188 271.035156 109.3125 271.488281 111.332031 272.324219 C 113.808594 273.355469 116.355469 274.25 118.734375 275.472656 C 123.710938 278.03125 125.808594 282.402344 125.566406 287.808594 C 125.328125 293.117188 122.671875 297.058594 117.867188 299.40625 C 109.59375 303.449219 98.136719 301.648438 91.085938 295.066406 C 92.679688 293.261719 94.285156 291.445312 95.824219 289.703125 C 101.5625 293.390625 107.132812 296.433594 113.859375 292.011719 Z M 113.859375 292.011719 " fill-opacity="1" fill-rule="nonzero"/><path fill="#050505" d="M 245.125 293.027344 C 239.320312 304.378906 222.585938 303.640625 216.925781 294.730469 C 212.269531 287.402344 212.125 271.023438 223.109375 265.875 C 233 261.242188 244.097656 266.199219 246.621094 276.761719 C 247.929688 282.238281 247.664062 287.640625 245.125 293.027344 M 223.644531 281.03125 C 224.023438 284.179688 224.101562 287.40625 224.871094 290.457031 C 225.53125 293.082031 227.683594 294.425781 230.546875 294.4375 C 233.386719 294.445312 235.421875 293.191406 236.34375 290.574219 C 238.117188 285.523438 238.085938 280.367188 236.394531 275.308594 C 235.523438 272.703125 233.519531 271.371094 230.65625 271.375 C 227.804688 271.378906 225.839844 272.710938 224.871094 275.269531 C 224.242188 276.929688 224.058594 278.753906 223.644531 281.03125 Z M 223.644531 281.03125 " fill-opacity="1" fill-rule="nonzero"/><path fill="#040404" d="M 127.1875 266.375 C 130.3125 265.835938 133.535156 265.527344 136.785156 265.214844 C 139.171875 274.933594 141.441406 284.1875 143.890625 294.167969 C 146.449219 284.214844 148.808594 275.050781 151.214844 265.695312 C 154.308594 265.695312 157.441406 265.695312 160.871094 265.695312 C 159.953125 268.542969 159.074219 271.273438 158.191406 274.003906 C 155.351562 282.820312 152.601562 291.667969 149.640625 300.441406 C 146.515625 309.710938 140.453125 314.199219 130.828125 314.527344 C 130.507812 312.523438 130.179688 310.492188 129.84375 308.394531 C 132.15625 307.578125 134.589844 307.144531 136.519531 305.921875 C 138.335938 304.769531 139.621094 302.78125 141.699219 300.566406 C 139.796875 300.371094 138.871094 300.277344 137.746094 300.160156 C 134.269531 289.007812 130.777344 277.808594 127.1875 266.375 Z M 127.1875 266.375 " fill-opacity="1" fill-rule="nonzero"/><path fill="#050505" d="M 165.730469 299.335938 C 164.183594 298.398438 162.832031 297.578125 161.179688 296.574219 C 162.816406 294.699219 164.269531 293.035156 165.78125 291.304688 C 169.335938 293.636719 172.917969 295.203125 177.132812 294.441406 C 179.058594 294.09375 180.574219 293.332031 180.882812 291.199219 C 181.199219 289.015625 179.902344 287.828125 178.078125 287.160156 C 175.652344 286.269531 173.136719 285.605469 170.722656 284.6875 C 165.15625 282.570312 162.519531 278.882812 162.929688 273.976562 C 163.308594 269.476562 166.828125 266.027344 172.273438 264.847656 C 178.464844 263.507812 184.089844 264.71875 189.382812 268.546875 C 188.203125 270.328125 187.121094 271.960938 186.082031 273.519531 C 183.539062 272.75 181.140625 271.851562 178.664062 271.335938 C 177.359375 271.066406 175.824219 271.207031 174.566406 271.648438 C 173.703125 271.949219 172.625 273.042969 172.566406 273.855469 C 172.492188 274.816406 173.152344 276.207031 173.949219 276.78125 C 175.199219 277.683594 176.820312 278.09375 178.304688 278.65625 C 180.445312 279.460938 182.664062 280.074219 184.734375 281.023438 C 188.386719 282.699219 190.433594 285.554688 190.542969 289.691406 C 190.65625 293.90625 188.824219 297.09375 185.222656 299.046875 C 178.917969 302.464844 172.421875 302.253906 165.730469 299.335938 Z M 165.730469 299.335938 " fill-opacity="1" fill-rule="nonzero"/><path fill="#060606" d="M 209.84375 295.910156 C 210.289062 297.460938 210.667969 298.777344 211.03125 300.050781 C 203.230469 303.882812 196.292969 300.351562 196.132812 292.25 C 195.867188 278.789062 196.054688 265.316406 196.0625 251.851562 C 196.0625 251.671875 196.210938 251.496094 196.367188 251.152344 C 199.234375 250.929688 202.183594 250.703125 205.484375 250.445312 C 205.484375 251.601562 205.484375 252.5625 205.484375 253.523438 C 205.484375 265.894531 205.496094 278.265625 205.476562 290.636719 C 205.472656 292.605469 205.527344 294.324219 208.332031 293.96875 C 208.734375 293.914062 209.289062 295.074219 209.84375 295.910156 Z M 209.84375 295.910156 " fill-opacity="1" fill-rule="nonzero"/><path fill="#f9f9f9" d="M 270.769531 271.351562 C 274.785156 275.277344 273.878906 282.195312 269.253906 283.0625 C 267.417969 283.410156 264.820312 282.707031 263.378906 281.503906 C 261.148438 279.644531 261.417969 276.671875 262.292969 274.019531 C 263.03125 271.789062 264.804688 270.714844 267.074219 270.667969 C 268.230469 270.640625 269.394531 271.027344 270.769531 271.351562 Z M 270.769531 271.351562 " fill-opacity="1" fill-rule="nonzero"/><path fill="#fbfbfb" d="M 223.660156 280.765625 C 224.058594 278.753906 224.242188 276.929688 224.871094 275.269531 C 225.839844 272.710938 227.804688 271.378906 230.65625 271.375 C 233.519531 271.371094 235.523438 272.703125 236.394531 275.308594 C 238.085938 280.367188 238.117188 285.523438 236.34375 290.574219 C 235.421875 293.191406 233.386719 294.445312 230.546875 294.4375 C 227.683594 294.425781 225.53125 293.082031 224.871094 290.457031 C 224.101562 287.40625 224.023438 284.179688 223.660156 280.765625 Z M 223.660156 280.765625 " fill-opacity="1" fill-rule="nonzero"/><g clip-path="url(#b873399177)"><g clip-path="url(#aeead3a99a)"><path fill="#ffffff" d="M 63.507812 238.605469 L 311.46875 238.605469 L 311.46875 318.054688 L 63.507812 318.054688 Z M 63.507812 238.605469 " fill-opacity="1" fill-rule="nonzero"/></g></g><g fill="#000000" fill-opacity="1"><g transform="translate(107.395852, 296.64455)"><g><path d="M 5.46875 -27.21875 L 5.40625 -46.078125 L 17.203125 -46.078125 L 17.203125 -28.515625 C 17.203125 -22.609375 17.210938 -18.128906 17.234375 -15.078125 C 17.265625 -12.035156 17.304688 -10.394531 17.359375 -10.15625 C 17.785156 -7.945312 19.222656 -6.53125 21.671875 -5.90625 C 23.640625 -5.613281 25.609375 -5.46875 27.578125 -5.46875 C 28.960938 -5.46875 30.207031 -5.550781 31.3125 -5.71875 C 32.414062 -5.882812 33.390625 -6.207031 34.234375 -6.6875 C 35.078125 -7.175781 35.75 -7.875 36.25 -8.78125 C 36.757812 -9.695312 37.082031 -10.875 37.21875 -12.3125 C 37.269531 -12.882812 37.304688 -14.238281 37.328125 -16.375 C 37.359375 -18.507812 37.375 -21.453125 37.375 -25.203125 C 37.375 -28.703125 37.375 -31.796875 37.375 -34.484375 C 37.375 -37.171875 37.394531 -39.453125 37.4375 -41.328125 L 37.515625 -46.078125 L 49.46875 -46.078125 L 49.390625 -28.796875 C 49.335938 -16.796875 49.191406 -9.957031 48.953125 -8.28125 C 48.617188 -5.207031 47.890625 -2.640625 46.765625 -0.578125 C 45.640625 1.484375 44.175781 3.125 42.375 4.34375 C 40.570312 5.570312 38.445312 6.4375 36 6.9375 C 33.550781 7.445312 30.863281 7.703125 27.9375 7.703125 C 24.863281 7.703125 21.992188 7.460938 19.328125 6.984375 C 16.671875 6.503906 14.34375 5.628906 12.34375 4.359375 C 10.351562 3.085938 8.769531 1.375 7.59375 -0.78125 C 6.414062 -2.945312 5.753906 -5.6875 5.609375 -9 C 5.566406 -9.863281 5.53125 -11.804688 5.5 -14.828125 C 5.476562 -17.859375 5.46875 -21.988281 5.46875 -27.21875 Z M 5.46875 -27.21875 "/></g></g></g><g fill="#000000" fill-opacity="1"><g transform="translate(162.25982, 296.64455)"><g><path d="M 27.859375 -37.578125 C 26.328125 -37.578125 24.78125 -37.457031 23.21875 -37.21875 C 21.65625 -36.976562 20.109375 -36.691406 18.578125 -36.359375 L 17.359375 -35.921875 L 17.359375 -4.6875 L 22.96875 -4.609375 C 26.1875 -4.609375 28.394531 -4.679688 29.59375 -4.828125 C 31.75 -4.972656 33.703125 -5.5625 35.453125 -6.59375 C 37.210938 -7.625 38.351562 -9.3125 38.875 -11.65625 C 38.976562 -12 39.148438 -12.984375 39.390625 -14.609375 C 39.628906 -16.242188 39.769531 -18.429688 39.8125 -21.171875 C 39.863281 -23.179688 39.769531 -24.796875 39.53125 -26.015625 C 39.289062 -27.242188 39.171875 -28.050781 39.171875 -28.4375 C 39.117188 -28.820312 39.082031 -29.171875 39.0625 -29.484375 C 39.039062 -29.796875 38.976562 -30.144531 38.875 -30.53125 C 38.488281 -32.019531 37.945312 -33.21875 37.25 -34.125 C 36.5625 -35.039062 35.75 -35.75 34.8125 -36.25 C 33.875 -36.757812 32.816406 -37.109375 31.640625 -37.296875 C 30.460938 -37.484375 29.203125 -37.578125 27.859375 -37.578125 Z M 27.9375 -46.21875 C 31.007812 -46.21875 33.875 -45.976562 36.53125 -45.5 C 39.195312 -45.019531 41.550781 -44.128906 43.59375 -42.828125 C 45.632812 -41.535156 47.347656 -39.773438 48.734375 -37.546875 C 50.128906 -35.316406 51.066406 -32.472656 51.546875 -29.015625 C 51.648438 -28.347656 51.804688 -27.304688 52.015625 -25.890625 C 52.234375 -24.472656 52.34375 -22.660156 52.34375 -20.453125 C 52.34375 -19.242188 52.28125 -17.875 52.15625 -16.34375 C 52.039062 -14.8125 51.863281 -13.25 51.625 -11.65625 C 51.382812 -10.070312 51.0625 -8.535156 50.65625 -7.046875 C 50.25 -5.566406 49.78125 -4.296875 49.25 -3.234375 C 46.800781 1.703125 42.695312 4.84375 36.9375 6.1875 C 35.976562 6.476562 34.945312 6.695312 33.84375 6.84375 C 32.738281 6.988281 31.632812 7.109375 30.53125 7.203125 C 29.332031 7.242188 27.601562 7.273438 25.34375 7.296875 C 23.082031 7.328125 20.25 7.34375 16.84375 7.34375 L 5.765625 7.34375 L 5.765625 -45.640625 L 6.765625 -45.640625 C 7.003906 -45.691406 7.4375 -45.71875 8.0625 -45.71875 C 8.6875 -45.71875 9.550781 -45.71875 10.65625 -45.71875 C 11.757812 -45.71875 12.78125 -45.71875 13.71875 -45.71875 C 14.65625 -45.71875 15.554688 -45.691406 16.421875 -45.640625 C 16.992188 -45.640625 17.351562 -45.628906 17.5 -45.609375 C 17.644531 -45.585938 17.71875 -45.503906 17.71875 -45.359375 C 17.71875 -45.210938 17.765625 -45.140625 17.859375 -45.140625 C 18.429688 -45.378906 19.160156 -45.554688 20.046875 -45.671875 C 20.941406 -45.796875 21.851562 -45.90625 22.78125 -46 C 23.71875 -46.101562 24.640625 -46.164062 25.546875 -46.1875 C 26.460938 -46.207031 27.257812 -46.21875 27.9375 -46.21875 Z M 27.9375 -46.21875 "/></g></g></g><g fill="#000000" fill-opacity="1"><g transform="translate(218.923794, 296.64455)"><g><path d="M 28.296875 -36.28125 C 27.578125 -36.332031 26.648438 -36.367188 25.515625 -36.390625 C 24.390625 -36.421875 23.035156 -36.4375 21.453125 -36.4375 L 16.921875 -36.4375 L 16.921875 -22.75 L 20.375 -22.6875 C 23.113281 -22.582031 25.285156 -22.585938 26.890625 -22.703125 C 28.492188 -22.828125 29.585938 -22.960938 30.171875 -23.109375 C 32.710938 -23.828125 34.175781 -25.316406 34.5625 -27.578125 C 34.75 -28.203125 34.820312 -29.257812 34.78125 -30.75 C 34.726562 -31.507812 34.65625 -32.140625 34.5625 -32.640625 C 34.46875 -33.148438 34.367188 -33.523438 34.265625 -33.765625 C 34.023438 -34.242188 33.757812 -34.628906 33.46875 -34.921875 C 33.1875 -35.210938 32.816406 -35.453125 32.359375 -35.640625 C 31.910156 -35.828125 31.359375 -35.96875 30.703125 -36.0625 C 30.054688 -36.164062 29.253906 -36.238281 28.296875 -36.28125 Z M 5.765625 -24.265625 L 5.765625 -46.078125 L 17.140625 -46.015625 C 27.316406 -45.960938 33.21875 -45.742188 34.84375 -45.359375 C 41.082031 -44.066406 44.753906 -40.46875 45.859375 -34.5625 C 46.003906 -33.789062 46.078125 -32.421875 46.078125 -30.453125 C 46.078125 -29.109375 46.050781 -27.800781 46 -26.53125 C 45.957031 -25.257812 45.789062 -24.035156 45.5 -22.859375 C 45.21875 -21.679688 44.785156 -20.539062 44.203125 -19.4375 C 43.628906 -18.332031 42.816406 -17.253906 41.765625 -16.203125 C 40.367188 -14.804688 38.722656 -13.757812 36.828125 -13.0625 C 34.929688 -12.375 33.046875 -11.90625 31.171875 -11.65625 C 30.453125 -11.5625 29.429688 -11.503906 28.109375 -11.484375 C 26.796875 -11.460938 25.226562 -11.425781 23.40625 -11.375 L 17.421875 -11.296875 L 17.421875 -4.96875 C 17.421875 -2.375 17.410156 -0.265625 17.390625 1.359375 C 17.367188 2.992188 17.332031 4.195312 17.28125 4.96875 L 17.203125 7.34375 L 11.59375 7.265625 L 5.96875 7.265625 L 5.90625 2.453125 C 5.851562 0.910156 5.816406 -2.078125 5.796875 -6.515625 C 5.773438 -10.953125 5.765625 -16.867188 5.765625 -24.265625 Z M 5.765625 -24.265625 "/></g></g></g></svg>
