<svg height="60" width="60" viewBox="0 0 500 500" xmlns="http://www.w3.org/2000/svg">
<path fill="#FFFFFF" opacity="1.000000" stroke="none"
	d="
M1.000000,186.000000
	C1.000000,124.015358 1.000000,62.530712 1.000000,1.023033
	C167.609695,1.023033 334.219391,1.023033 500.914551,1.023033
	C500.914551,167.568039 500.914551,334.136139 500.914551,500.852112
	C334.333435,500.852112 167.666733,500.852112 1.000000,500.852112
	C1.000000,396.113800 1.000000,291.306915 1.000000,186.000000
M66.271011,48.514027
	C66.271011,138.255646 66.271011,227.997253 66.271011,318.182861
	C50.645763,318.182861 35.571995,318.182861 20.528397,318.182861
	C20.528397,377.012543 20.528397,435.396454 20.528397,493.680664
	C174.411652,493.680664 327.965637,493.680664 481.455383,493.680664
	C481.455383,434.968811 481.455383,376.585968 481.455383,317.798523
	C466.017303,317.798523 450.921783,317.798523 435.726440,317.798523
	C435.726440,296.398193 435.726654,275.403870 435.726410,254.409531
	C435.725861,209.084930 435.702393,163.760300 435.758057,118.435768
	C435.763824,113.727501 434.612183,109.995522 431.037476,106.448524
	C399.694122,75.347969 368.523346,44.072983 337.405182,12.746669
	C334.110199,9.429658 330.621338,7.907067 325.931213,7.925312
	C293.771240,8.050409 261.610504,7.990973 229.450027,7.990975
	C186.458313,7.990978 143.466583,8.010522 100.474899,7.976377
	C90.524918,7.968475 81.941551,10.958311 74.910545,18.300415
	C66.944885,26.618521 65.715279,36.767548 66.271011,48.514027
z"/>
<path fill="#050505" opacity="1.000000" stroke="none"
	d="
M66.271187,48.017677
	C65.715279,36.767548 66.944885,26.618521 74.910545,18.300415
	C81.941551,10.958311 90.524918,7.968475 100.474899,7.976377
	C143.466583,8.010522 186.458313,7.990978 229.450027,7.990975
	C261.610504,7.990973 293.771240,8.050409 325.931213,7.925312
	C330.621338,7.907067 334.110199,9.429658 337.405182,12.746669
	C368.523346,44.072983 399.694122,75.347969 431.037476,106.448524
	C434.612183,109.995522 435.763824,113.727501 435.758057,118.435768
	C435.702393,163.760300 435.725861,209.084930 435.726410,254.409531
	C435.726654,275.403870 435.726440,296.398193 435.726440,317.798523
	C450.921783,317.798523 466.017303,317.798523 481.455383,317.798523
	C481.455383,376.585968 481.455383,434.968811 481.455383,493.680664
	C327.965637,493.680664 174.411652,493.680664 20.528397,493.680664
	C20.528397,435.396454 20.528397,377.012543 20.528397,318.182861
	C35.571995,318.182861 50.645763,318.182861 66.271011,318.182861
	C66.271011,227.997253 66.271011,138.255646 66.271187,48.017677
M331.805908,124.846748
	C322.335999,124.647499 319.023560,121.266083 319.021301,111.753128
	C319.015381,86.593735 319.019287,61.434338 319.019257,36.274944
	C319.019257,33.473915 319.019226,30.672888 319.019226,27.669006
	C317.654236,27.608854 316.688690,27.529135 315.723145,27.529058
	C244.077179,27.523289 172.431229,27.508938 100.785271,27.540398
	C90.409492,27.544954 85.890663,32.151733 85.889771,42.470409
	C85.881935,132.944260 85.885208,223.418121 85.885193,313.891968
	C85.885193,315.166626 85.885193,316.441284 85.885193,317.726501
	C196.233322,317.726501 306.090607,317.726501 415.861755,317.726501
	C415.861755,253.330536 415.861755,189.253632 415.861755,124.846756
	C387.987061,124.846756 360.364075,124.846756 331.805908,124.846748
M50.500263,328.080811
	C43.883236,328.080811 37.266212,328.080811 30.561024,328.080811
	C30.561024,380.273682 30.561024,431.989014 30.561024,483.609619
	C177.746368,483.609619 324.624359,483.609619 471.521149,483.609619
	C471.521149,431.683624 471.521149,380.094910 471.521149,328.080811
	C331.364471,328.080811 191.432343,328.080811 50.500263,328.080811
M340.319366,43.060070
	C336.506592,41.449593 338.536072,44.934994 338.530457,45.545380
	C338.382385,61.677673 338.413147,77.811607 338.413361,93.945259
	C338.413422,97.565163 338.413361,101.185074 338.413361,104.852875
	C359.586609,104.852875 380.245026,104.852875 400.903442,104.852875
	C401.199493,104.452621 401.495575,104.052368 401.791656,103.652115
	C381.473633,83.624374 361.155579,63.596630 340.319366,43.060070
z"/>
<path fill="#FEFEFE" opacity="1.000000" stroke="none"
	d="
M332.273499,124.846756
	C360.364075,124.846756 387.987061,124.846756 415.861755,124.846756
	C415.861755,189.253632 415.861755,253.330536 415.861755,317.726501
	C306.090607,317.726501 196.233322,317.726501 85.885193,317.726501
	C85.885193,316.441284 85.885193,315.166626 85.885193,313.891968
	C85.885208,223.418121 85.881935,132.944260 85.889771,42.470409
	C85.890663,32.151733 90.409492,27.544954 100.785271,27.540398
	C172.431229,27.508938 244.077179,27.523289 315.723145,27.529058
	C316.688690,27.529135 317.654236,27.608854 319.019226,27.669006
	C319.019226,30.672888 319.019257,33.473915 319.019257,36.274944
	C319.019287,61.434338 319.015381,86.593735 319.021301,111.753128
	C319.023560,121.266083 322.335999,124.647499 332.273499,124.846756
M249.500244,163.470810
	C212.681671,163.470825 175.863083,163.465042 139.044525,163.485672
	C136.886688,163.486877 134.692352,163.490936 132.578613,163.858963
	C127.654800,164.716293 124.755966,168.379471 124.812462,173.327820
	C124.882607,179.473068 129.182693,183.004211 136.737152,183.005203
	C212.706787,183.015167 288.676422,183.011948 364.646057,183.005524
	C365.976562,183.005417 367.332703,183.069809 368.633118,182.847778
	C374.351898,181.871292 377.802216,177.332596 377.101746,171.841995
	C376.391022,166.270950 372.427917,163.484848 364.954529,163.480865
	C326.803101,163.460526 288.651703,163.471085 249.500244,163.470810
M339.499725,299.540466
	C348.987122,299.502808 358.481689,299.673004 367.959106,299.346161
	C373.273865,299.162842 377.025024,294.844879 377.027557,289.920349
	C377.030121,284.951141 373.340240,280.901947 368.093628,280.246918
	C366.616058,280.062469 365.102264,280.145142 363.605072,280.145020
	C314.327484,280.140869 265.049866,280.140930 215.772263,280.144348
	C214.274536,280.144470 212.763519,280.067200 211.281479,280.231445
	C206.108658,280.804596 202.257339,284.889465 202.137711,289.814514
	C202.020615,294.635803 205.890381,298.802429 211.152267,299.378601
	C212.964859,299.577057 214.808228,299.534332 216.637527,299.534698
	C257.258240,299.542297 297.878967,299.540497 339.499725,299.540466
M135.927460,105.150513
	C130.947357,105.129440 127.087708,107.070770 125.422096,111.938965
	C123.980804,116.151497 125.149002,120.181259 128.799469,122.542191
	C131.125793,124.046730 134.369446,124.749100 137.205002,124.757774
	C180.688721,124.890953 224.172974,124.853973 267.657104,124.836601
	C269.145966,124.836006 270.672546,124.799797 272.116638,124.483696
	C276.708893,123.478477 280.065094,119.234612 279.928467,114.807060
	C279.786377,110.202271 276.445892,106.242081 271.768341,105.410072
	C269.984131,105.092712 268.120361,105.158844 266.292786,105.158340
	C223.141861,105.146492 179.990952,105.149429 135.927460,105.150513
M139.597290,241.167633
	C175.377457,241.167633 211.157639,241.169739 246.937805,241.161499
	C248.766739,241.161072 250.618729,241.239899 252.420288,240.992554
	C258.230865,240.194839 261.839935,234.458313 260.171295,228.846588
	C258.726074,223.986313 255.636124,221.854416 249.514114,221.849335
	C211.570526,221.817841 173.626877,221.833450 135.683258,221.839417
	C134.852432,221.839539 134.014420,221.854263 133.191956,221.958466
	C128.190491,222.592102 124.804123,226.447617 124.816727,231.456985
	C124.829384,236.488480 128.216263,240.447601 133.148758,241.019943
	C134.958344,241.229904 136.804169,241.127487 139.597290,241.167633
M294.601318,221.831680
	C293.934967,221.831680 293.268585,221.827072 292.602264,221.832397
	C284.469208,221.897415 280.074524,225.287659 280.110687,231.467239
	C280.146545,237.593033 284.691986,241.153046 292.586639,241.162827
	C307.745544,241.181610 322.904510,241.168976 338.063446,241.168060
	C347.725189,241.167480 357.388336,241.265198 367.048157,241.127930
	C373.672272,241.033813 377.825317,236.367508 377.093689,230.236542
	C376.453156,224.868881 372.609711,221.860321 366.037750,221.848953
	C342.549805,221.808350 319.061737,221.832214 294.601318,221.831680
M132.498611,280.514038
	C126.779282,282.744202 124.281609,286.349243 125.036118,291.285095
	C125.768150,296.073853 129.701157,299.423981 135.356003,299.486542
	C147.655991,299.622772 159.959915,299.635223 172.259491,299.480347
	C178.433487,299.402588 182.876587,295.105316 182.809891,289.840576
	C182.741928,284.477509 178.313522,280.226654 172.209946,280.188293
	C159.247375,280.106812 146.283356,280.254883 132.498611,280.514038
z"/>
<path fill="#FDFDFD" opacity="1.000000" stroke="none"
	d="
M51.000225,328.080811
	C191.432343,328.080811 331.364471,328.080811 471.521149,328.080811
	C471.521149,380.094910 471.521149,431.683624 471.521149,483.609619
	C324.624359,483.609619 177.746368,483.609619 30.561024,483.609619
	C30.561024,431.989014 30.561024,380.273682 30.561024,328.080811
	C37.266212,328.080811 43.883236,328.080811 51.000225,328.080811
M411.969727,440.066376
	C409.512756,431.231110 402.861237,427.810272 394.522461,426.955048
	C389.568390,426.446930 384.507416,426.867126 379.589508,426.184998
	C377.954712,425.958252 376.615601,423.599396 375.141296,422.215332
	C376.818665,421.419647 378.421570,420.243347 380.187012,419.898163
	C385.982819,418.764893 392.335297,419.065887 397.572479,416.764496
	C411.001129,410.863434 411.420441,391.854279 399.999817,386.645111
	C399.399750,386.371399 398.644501,386.437958 397.961487,386.346100
	C398.372223,386.074799 398.782959,385.803528 399.193695,385.532257
	C404.132843,384.786957 409.071960,384.041656 414.225677,383.263947
	C412.693542,378.641296 411.506836,375.060883 410.137024,370.927948
	C400.585571,376.912506 390.362244,377.875366 379.794098,378.289398
	C367.120728,378.785980 358.891327,386.884399 358.124207,398.174377
	C357.584290,406.120544 361.189026,411.866150 368.214172,416.042999
	C367.039856,417.068634 366.143921,417.736206 365.383606,418.533234
	C359.017761,425.206421 361.006744,433.811554 369.796631,436.574097
	C373.060944,437.600037 376.649384,437.705872 380.109924,437.964813
	C383.589172,438.225098 387.124451,437.892365 390.577179,438.304871
	C393.743164,438.683044 396.324982,440.345337 396.497192,443.986206
	C396.664886,447.530853 394.628754,449.729034 391.311981,450.247986
	C387.563385,450.834473 383.734161,451.030548 379.933167,451.126984
	C374.567719,451.263123 369.899597,450.081055 369.021820,443.819183
	C364.415802,443.819183 360.160065,443.819183 355.917389,443.819183
	C355.690918,452.663727 359.008575,457.698578 367.107574,460.018311
	C377.925842,463.116913 388.844666,462.935791 399.524200,459.375031
	C408.741150,456.301941 412.386963,450.603149 411.969727,440.066376
M126.988426,424.453247
	C116.057381,431.557739 106.772743,426.486176 97.205887,420.337433
	C94.639069,423.242828 91.966629,426.267792 89.307961,429.277161
	C101.064430,440.247772 120.153755,443.246338 133.943237,436.511017
	C141.950073,432.600098 146.381088,426.030090 146.776978,417.183838
	C147.180466,408.167969 143.682709,400.884949 135.390945,396.620880
	C131.426819,394.582275 127.179962,393.090942 123.051140,391.375885
	C119.688606,389.979126 115.822662,389.227631 113.098717,387.043945
	C111.013351,385.372101 109.173325,381.790955 109.426384,379.281097
	C109.654449,377.019012 112.509583,374.122620 114.867569,373.204071
	C117.760384,372.077148 121.511101,372.012604 124.583000,372.757904
	C128.964249,373.820923 133.065765,376.036926 137.506210,377.850006
	C139.702362,375.281952 142.061356,372.523499 144.541824,369.622986
	C135.302826,361.059906 124.590538,358.641968 112.863800,360.604218
	C100.567390,362.661865 93.455315,369.634003 92.406601,379.829163
	C91.390686,389.705505 96.487396,397.135406 108.018776,402.111755
	C112.730255,404.144958 117.718361,405.536560 122.432373,407.564636
	C130.459946,411.018311 132.055771,416.426361 126.988426,424.453247
M346.155975,425.519836
	C350.273102,416.898743 350.715118,407.895294 348.535553,398.768402
	C344.331451,381.163879 325.831696,372.900726 309.351074,380.626160
	C291.044739,389.207458 291.280945,416.501373 299.043701,428.717682
	C308.478394,443.565155 336.369751,444.801300 346.155975,425.519836
M149.639435,381.843597
	C155.460571,400.513214 161.281723,419.182800 167.076675,437.768402
	C168.954086,437.961212 170.496262,438.119598 173.663910,438.444916
	C170.202789,442.135529 168.059372,445.447693 165.032837,447.368073
	C161.815552,449.409515 157.761230,450.131805 153.906494,451.488525
	C154.468857,454.987488 155.013184,458.374237 155.549454,461.710907
	C171.591293,461.165955 181.694504,453.686737 186.902649,438.236847
	C191.833282,423.610168 196.417648,408.866791 201.153900,394.174591
	C202.621048,389.623413 204.086914,385.071869 205.616501,380.324585
	C199.901978,380.324585 194.684036,380.324585 189.525772,380.324585
	C185.513885,395.918579 181.584671,411.191254 177.317215,427.778625
	C173.236588,411.147125 169.452332,395.723511 165.477417,379.522827
	C160.059570,380.043091 154.690384,380.558716 149.639435,381.843597
M214.044296,436.594482
	C224.870590,441.254211 235.697067,441.610840 246.206757,435.908966
	C252.206726,432.653778 255.261642,427.344330 255.073349,420.319946
	C254.888458,413.422821 251.479706,408.666656 245.392212,405.873932
	C241.943039,404.291595 238.239502,403.270355 234.677063,401.926117
	C232.199844,400.991394 229.499603,400.308563 227.412399,398.801910
	C226.085251,397.843933 224.987381,395.529694 225.108765,393.923492
	C225.210770,392.573608 227.006836,390.745605 228.441742,390.246002
	C230.543625,389.514130 233.097229,389.276367 235.271454,389.727875
	C239.401901,390.585754 243.399902,392.081268 247.639679,393.368713
	C249.367020,390.765106 251.169510,388.048218 253.138870,385.079834
	C244.316544,378.698090 234.938965,376.677521 224.623566,378.912415
	C215.547195,380.878876 209.679306,386.626038 209.052292,394.127228
	C208.368988,402.301544 212.759979,408.451996 222.036728,411.978119
	C226.064392,413.509003 230.252823,414.613525 234.299942,416.097839
	C237.335098,417.211029 239.499359,419.195251 238.971878,422.831940
	C238.456711,426.383667 235.931793,427.658142 232.723511,428.237427
	C225.697556,429.506012 219.725250,426.895264 213.802826,423.006104
	C211.283630,425.891479 208.859116,428.668427 206.131454,431.792542
	C208.884644,433.461639 211.138916,434.828278 214.044296,436.594482
M287.122131,430.290405
	C286.314911,429.291901 285.389130,427.359863 284.719574,427.444885
	C280.046082,428.038452 279.955536,425.176392 279.960632,421.892639
	C279.992645,401.275848 279.976562,380.658936 279.976410,360.042084
	C279.976379,358.438812 279.976379,356.835541 279.976379,354.909058
	C274.473572,355.336639 269.557251,355.718628 264.777161,356.090027
	C264.521210,356.660339 264.273102,356.955231 264.272949,357.250275
	C264.259338,379.695282 263.944366,402.146667 264.389923,424.582916
	C264.658112,438.087677 276.214325,443.974365 289.218506,437.582367
	C288.610657,435.462585 287.982361,433.271454 287.122131,430.290405
z"/>
<path fill="#F9F9F9" opacity="1.000000" stroke="none"
	d="
M340.578461,43.314480
	C361.155579,63.596630 381.473633,83.624374 401.791656,103.652115
	C401.495575,104.052368 401.199493,104.452621 400.903442,104.852875
	C380.245026,104.852875 359.586609,104.852875 338.413361,104.852875
	C338.413361,101.185074 338.413422,97.565163 338.413361,93.945259
	C338.413147,77.811607 338.382385,61.677673 338.530457,45.545380
	C338.536072,44.934994 336.506592,41.449593 340.578461,43.314480
z"/>
<path fill="#060606" opacity="1.000000" stroke="none"
	d="
M250.000259,163.470825
	C288.651703,163.471085 326.803101,163.460526 364.954529,163.480865
	C372.427917,163.484848 376.391022,166.270950 377.101746,171.841995
	C377.802216,177.332596 374.351898,181.871292 368.633118,182.847778
	C367.332703,183.069809 365.976562,183.005417 364.646057,183.005524
	C288.676422,183.011948 212.706787,183.015167 136.737152,183.005203
	C129.182693,183.004211 124.882607,179.473068 124.812462,173.327820
	C124.755966,168.379471 127.654800,164.716293 132.578613,163.858963
	C134.692352,163.490936 136.886688,163.486877 139.044525,163.485672
	C175.863083,163.465042 212.681671,163.470825 250.000259,163.470825
z"/>
<path fill="#090909" opacity="1.000000" stroke="none"
	d="
M338.999695,299.540466
	C297.878967,299.540497 257.258240,299.542297 216.637527,299.534698
	C214.808228,299.534332 212.964859,299.577057 211.152267,299.378601
	C205.890381,298.802429 202.020615,294.635803 202.137711,289.814514
	C202.257339,284.889465 206.108658,280.804596 211.281479,280.231445
	C212.763519,280.067200 214.274536,280.144470 215.772263,280.144348
	C265.049866,280.140930 314.327484,280.140869 363.605072,280.145020
	C365.102264,280.145142 366.616058,280.062469 368.093628,280.246918
	C373.340240,280.901947 377.030121,284.951141 377.027557,289.920349
	C377.025024,294.844879 373.273865,299.162842 367.959106,299.346161
	C358.481689,299.673004 348.987122,299.502808 338.999695,299.540466
z"/>
<path fill="#060606" opacity="1.000000" stroke="none"
	d="
M136.383743,105.150085
	C179.990952,105.149429 223.141861,105.146492 266.292786,105.158340
	C268.120361,105.158844 269.984131,105.092712 271.768341,105.410072
	C276.445892,106.242081 279.786377,110.202271 279.928467,114.807060
	C280.065094,119.234612 276.708893,123.478477 272.116638,124.483696
	C270.672546,124.799797 269.145966,124.836006 267.657104,124.836601
	C224.172974,124.853973 180.688721,124.890953 137.205002,124.757774
	C134.369446,124.749100 131.125793,124.046730 128.799469,122.542191
	C125.149002,120.181259 123.980804,116.151497 125.422096,111.938965
	C127.087708,107.070770 130.947357,105.129440 136.383743,105.150085
z"/>
<path fill="#010101" opacity="1.000000" stroke="none"
	d="
M139.115387,241.167603
	C136.804169,241.127487 134.958344,241.229904 133.148758,241.019943
	C128.216263,240.447601 124.829384,236.488480 124.816727,231.456985
	C124.804123,226.447617 128.190491,222.592102 133.191956,221.958466
	C134.014420,221.854263 134.852432,221.839539 135.683258,221.839417
	C173.626877,221.833450 211.570526,221.817841 249.514114,221.849335
	C255.636124,221.854416 258.726074,223.986313 260.171295,228.846588
	C261.839935,234.458313 258.230865,240.194839 252.420288,240.992554
	C250.618729,241.239899 248.766739,241.161072 246.937805,241.161499
	C211.157639,241.169739 175.377457,241.167633 139.115387,241.167603
z"/>
<path fill="#010101" opacity="1.000000" stroke="none"
	d="
M295.087524,221.831680
	C319.061737,221.832214 342.549805,221.808350 366.037750,221.848953
	C372.609711,221.860321 376.453156,224.868881 377.093689,230.236542
	C377.825317,236.367508 373.672272,241.033813 367.048157,241.127930
	C357.388336,241.265198 347.725189,241.167480 338.063446,241.168060
	C322.904510,241.168976 307.745544,241.181610 292.586639,241.162827
	C284.691986,241.153046 280.146545,237.593033 280.110687,231.467239
	C280.074524,225.287659 284.469208,221.897415 292.602264,221.832397
	C293.268585,221.827072 293.934967,221.831680 295.087524,221.831680
z"/>
<path fill="#090909" opacity="1.000000" stroke="none"
	d="
M132.909271,280.411438
	C146.283356,280.254883 159.247375,280.106812 172.209946,280.188293
	C178.313522,280.226654 182.741928,284.477509 182.809891,289.840576
	C182.876587,295.105316 178.433487,299.402588 172.259491,299.480347
	C159.959915,299.635223 147.655991,299.622772 135.356003,299.486542
	C129.701157,299.423981 125.768150,296.073853 125.036118,291.285095
	C124.281609,286.349243 126.779282,282.744202 132.909271,280.411438
z"/>
<path fill="#050505" opacity="1.000000" stroke="none"
	d="
M412.006042,440.488464
	C412.386963,450.603149 408.741150,456.301941 399.524200,459.375031
	C388.844666,462.935791 377.925842,463.116913 367.107574,460.018311
	C359.008575,457.698578 355.690918,452.663727 355.917389,443.819183
	C360.160065,443.819183 364.415802,443.819183 369.021820,443.819183
	C369.899597,450.081055 374.567719,451.263123 379.933167,451.126984
	C383.734161,451.030548 387.563385,450.834473 391.311981,450.247986
	C394.628754,449.729034 396.664886,447.530853 396.497192,443.986206
	C396.324982,440.345337 393.743164,438.683044 390.577179,438.304871
	C387.124451,437.892365 383.589172,438.225098 380.109924,437.964813
	C376.649384,437.705872 373.060944,437.600037 369.796631,436.574097
	C361.006744,433.811554 359.017761,425.206421 365.383606,418.533234
	C366.143921,417.736206 367.039856,417.068634 368.214172,416.042999
	C361.189026,411.866150 357.584290,406.120544 358.124207,398.174377
	C358.891327,386.884399 367.120728,378.785980 379.794098,378.289398
	C390.362244,377.875366 400.585571,376.912506 410.137024,370.927948
	C411.506836,375.060883 412.693542,378.641296 414.225677,383.263947
	C409.071960,384.041656 404.132843,384.786957 399.193695,385.532257
	C398.782959,385.803528 398.372223,386.074799 397.961487,386.346100
	C398.644501,386.437958 399.399750,386.371399 399.999817,386.645111
	C411.420441,391.854279 411.001129,410.863434 397.572479,416.764496
	C392.335297,419.065887 385.982819,418.764893 380.187012,419.898163
	C378.421570,420.243347 376.818665,421.419647 375.141296,422.215332
	C376.615601,423.599396 377.954712,425.958252 379.589508,426.184998
	C384.507416,426.867126 389.568390,426.446930 394.522461,426.955048
	C402.861237,427.810272 409.512756,431.231110 412.006042,440.488464
M388.420990,389.549561
	C386.489044,389.214630 384.550537,388.569794 382.626556,388.610504
	C378.841492,388.690582 375.884338,390.480743 374.656708,394.199158
	C373.196655,398.621552 372.749146,403.571808 376.466949,406.675964
	C378.864197,408.677460 383.194458,409.851166 386.258698,409.273956
	C393.965210,407.822449 395.475403,396.292389 388.420990,389.549561
z"/>
<path fill="#050505" opacity="1.000000" stroke="none"
	d="
M127.267502,424.185486
	C132.055771,416.426361 130.459946,411.018311 122.432373,407.564636
	C117.718361,405.536560 112.730255,404.144958 108.018776,402.111755
	C96.487396,397.135406 91.390686,389.705505 92.406601,379.829163
	C93.455315,369.634003 100.567390,362.661865 112.863800,360.604218
	C124.590538,358.641968 135.302826,361.059906 144.541824,369.622986
	C142.061356,372.523499 139.702362,375.281952 137.506210,377.850006
	C133.065765,376.036926 128.964249,373.820923 124.583000,372.757904
	C121.511101,372.012604 117.760384,372.077148 114.867569,373.204071
	C112.509583,374.122620 109.654449,377.019012 109.426384,379.281097
	C109.173325,381.790955 111.013351,385.372101 113.098717,387.043945
	C115.822662,389.227631 119.688606,389.979126 123.051140,391.375885
	C127.179962,393.090942 131.426819,394.582275 135.390945,396.620880
	C143.682709,400.884949 147.180466,408.167969 146.776978,417.183838
	C146.381088,426.030090 141.950073,432.600098 133.943237,436.511017
	C120.153755,443.246338 101.064430,440.247772 89.307961,429.277161
	C91.966629,426.267792 94.639069,423.242828 97.205887,420.337433
	C106.772743,426.486176 116.057381,431.557739 127.267502,424.185486
z"/>
<path fill="#050505" opacity="1.000000" stroke="none"
	d="
M346.042145,425.878662
	C336.369751,444.801300 308.478394,443.565155 299.043701,428.717682
	C291.280945,416.501373 291.044739,389.207458 309.351074,380.626160
	C325.831696,372.900726 344.331451,381.163879 348.535553,398.768402
	C350.715118,407.895294 350.273102,416.898743 346.042145,425.878662
M310.242859,405.885132
	C310.872314,411.135468 310.999756,416.512573 312.283966,421.597565
	C313.388031,425.969147 316.973297,428.211731 321.744904,428.227356
	C326.477020,428.242828 329.872162,426.152557 331.404449,421.789246
	C334.360840,413.370514 334.309967,404.775696 331.493439,396.346313
	C330.042236,392.003143 326.696350,389.786621 321.924622,389.791351
	C317.175842,389.796082 313.897461,392.015076 312.282379,396.285034
	C311.237671,399.047058 310.930054,402.087860 310.242859,405.885132
z"/>
<path fill="#040404" opacity="1.000000" stroke="none"
	d="
M149.480316,381.458954
	C154.690384,380.558716 160.059570,380.043091 165.477417,379.522827
	C169.452332,395.723511 173.236588,411.147125 177.317215,427.778625
	C181.584671,411.191254 185.513885,395.918579 189.525772,380.324585
	C194.684036,380.324585 199.901978,380.324585 205.616501,380.324585
	C204.086914,385.071869 202.621048,389.623413 201.153900,394.174591
	C196.417648,408.866791 191.833282,423.610168 186.902649,438.236847
	C181.694504,453.686737 171.591293,461.165955 155.549454,461.710907
	C155.013184,458.374237 154.468857,454.987488 153.906494,451.488525
	C157.761230,450.131805 161.815552,449.409515 165.032837,447.368073
	C168.059372,445.447693 170.202789,442.135529 173.663910,438.444916
	C170.496262,438.119598 168.954086,437.961212 167.076675,437.768402
	C161.281723,419.182800 155.460571,400.513214 149.480316,381.458954
z"/>
<path fill="#050505" opacity="1.000000" stroke="none"
	d="
M213.718735,436.394684
	C211.138916,434.828278 208.884644,433.461639 206.131454,431.792542
	C208.859116,428.668427 211.283630,425.891479 213.802826,423.006104
	C219.725250,426.895264 225.697556,429.506012 232.723511,428.237427
	C235.931793,427.658142 238.456711,426.383667 238.971878,422.831940
	C239.499359,419.195251 237.335098,417.211029 234.299942,416.097839
	C230.252823,414.613525 226.064392,413.509003 222.036728,411.978119
	C212.759979,408.451996 208.368988,402.301544 209.052292,394.127228
	C209.679306,386.626038 215.547195,380.878876 224.623566,378.912415
	C234.938965,376.677521 244.316544,378.698090 253.138870,385.079834
	C251.169510,388.048218 249.367020,390.765106 247.639679,393.368713
	C243.399902,392.081268 239.401901,390.585754 235.271454,389.727875
	C233.097229,389.276367 230.543625,389.514130 228.441742,390.246002
	C227.006836,390.745605 225.210770,392.573608 225.108765,393.923492
	C224.987381,395.529694 226.085251,397.843933 227.412399,398.801910
	C229.499603,400.308563 232.199844,400.991394 234.677063,401.926117
	C238.239502,403.270355 241.943039,404.291595 245.392212,405.873932
	C251.479706,408.666656 254.888458,413.422821 255.073349,420.319946
	C255.261642,427.344330 252.206726,432.653778 246.206757,435.908966
	C235.697067,441.610840 224.870590,441.254211 213.718735,436.394684
z"/>
<path fill="#060606" opacity="1.000000" stroke="none"
	d="
M287.238098,430.685364
	C287.982361,433.271454 288.610657,435.462585 289.218506,437.582367
	C276.214325,443.974365 264.658112,438.087677 264.389923,424.582916
	C263.944366,402.146667 264.259338,379.695282 264.272949,357.250275
	C264.273102,356.955231 264.521210,356.660339 264.777161,356.090027
	C269.557251,355.718628 274.473572,355.336639 279.976379,354.909058
	C279.976379,356.835541 279.976379,358.438812 279.976410,360.042084
	C279.976562,380.658936 279.992645,401.275848 279.960632,421.892639
	C279.955536,425.176392 280.046082,428.038452 284.719574,427.444885
	C285.389130,427.359863 286.314911,429.291901 287.238098,430.685364
z"/>
<path fill="#F9F9F9" opacity="1.000000" stroke="none"
	d="
M388.779480,389.752533
	C395.475403,396.292389 393.965210,407.822449 386.258698,409.273956
	C383.194458,409.851166 378.864197,408.677460 376.466949,406.675964
	C372.749146,403.571808 373.196655,398.621552 374.656708,394.199158
	C375.884338,390.480743 378.841492,388.690582 382.626556,388.610504
	C384.550537,388.569794 386.489044,389.214630 388.779480,389.752533
z"/>
<path fill="#FBFBFB" opacity="1.000000" stroke="none"
	d="
M310.267487,405.444427
	C310.930054,402.087860 311.237671,399.047058 312.282379,396.285034
	C313.897461,392.015076 317.175842,389.796082 321.924622,389.791351
	C326.696350,389.786621 330.042236,392.003143 331.493439,396.346313
	C334.309967,404.775696 334.360840,413.370514 331.404449,421.789246
	C329.872162,426.152557 326.477020,428.242828 321.744904,428.227356
	C316.973297,428.211731 313.388031,425.969147 312.283966,421.597565
	C310.999756,416.512573 310.872314,411.135468 310.267487,405.444427
z"/>
</svg>
