<svg height="60" width="60" viewBox="0 0 186 166" xmlns="http://www.w3.org/2000/svg">
<path fill="#FFFFFF" opacity="1.000000" stroke="none"
	d="
M122.000000,167.000000
	C81.333336,167.000000 41.166672,167.000000 1.000005,167.000000
	C1.000004,111.666672 1.000004,56.333344 1.000002,1.000013
	C62.999989,1.000009 124.999977,1.000009 186.999969,1.000004
	C186.999985,56.333324 186.999985,111.666649 187.000000,166.999985
	C165.500000,167.000000 144.000000,167.000000 122.000000,167.000000
M74.918900,159.969315
	C93.967201,159.493393 113.084709,161.404251 132.050827,158.031464
	C144.682022,155.785233 157.179260,153.249344 169.050491,148.093811
	C172.796005,146.467163 173.382645,144.029709 172.961105,140.636978
	C171.967926,132.643799 171.375977,124.575493 169.886749,116.676140
	C168.316696,108.348022 165.893112,100.180809 163.952301,91.182587
	C162.818924,88.144943 161.906998,85.001511 160.514877,82.087471
	C153.434738,67.267097 144.641449,53.571175 133.768387,41.197598
	C122.918587,28.850500 111.861244,16.859772 97.350388,8.524335
	C94.174759,6.700168 91.885094,6.854755 89.199326,8.374683
	C75.635788,16.050529 62.539135,24.334888 52.244732,37.240482
	C42.706676,49.594219 34.675735,62.808342 28.895046,77.365677
	C20.550928,98.378410 14.967739,119.937592 14.917327,142.734726
	C14.909943,146.074539 15.985698,147.746643 18.998159,149.064301
	C36.547066,156.740250 54.779011,160.732452 74.918900,159.969315
z"/>
<path fill="#0C9ECC" opacity="1.000000" stroke="none"
	d="
M52.864586,36.959991
	C62.539135,24.334888 75.635788,16.050529 89.199326,8.374683
	C91.885094,6.854755 94.174759,6.700168 97.350388,8.524335
	C111.861244,16.859772 122.918587,28.850500 133.768387,41.197598
	C144.641449,53.571175 153.434738,67.267097 160.514877,82.087471
	C161.906998,85.001511 162.818924,88.144943 163.551178,91.511597
	C154.064865,86.926743 144.979675,82.012878 135.580353,76.938126
	C123.403725,69.952118 111.519783,63.163872 99.691948,56.279236
	C96.174988,54.232124 93.176704,53.537407 89.568268,56.590820
	C86.768875,58.959625 83.024101,60.185757 79.780663,62.060158
	C71.175240,67.033279 62.613747,72.082428 54.025635,76.626389
	C54.002636,65.178505 54.045547,54.204933 53.925133,43.233154
	C53.902142,41.138474 53.234699,39.050865 52.864586,36.959991
z"/>
<path fill="#1188BC" opacity="1.000000" stroke="none"
	d="
M52.554657,37.100235
	C53.234699,39.050865 53.902142,41.138474 53.925133,43.233154
	C54.045547,54.204933 54.002636,65.178505 54.011856,77.088547
	C54.004875,91.838829 54.118347,105.653687 53.919441,119.464035
	C53.869175,122.954140 55.120037,124.480400 58.161804,126.184975
	C69.965462,132.799637 81.482742,139.925323 92.984299,147.186493
	C86.570534,151.624283 80.279106,155.736343 73.987686,159.848389
	C54.779011,160.732452 36.547066,156.740250 18.998159,149.064301
	C15.985698,147.746643 14.909943,146.074539 14.917327,142.734726
	C14.967739,119.937592 20.550928,98.378410 28.895046,77.365677
	C34.675735,62.808342 42.706676,49.594219 52.554657,37.100235
z"/>
<path fill="#045F9B" opacity="1.000000" stroke="none"
	d="
M74.453293,159.908844
	C80.279106,155.736343 86.570534,151.624283 93.308167,147.083801
	C107.152794,138.946457 120.579582,131.285721 133.896576,123.438652
	C134.980530,122.799927 135.896271,120.892044 135.906586,119.566246
	C136.016785,105.411392 135.928391,91.254997 135.894501,77.099022
	C144.979675,82.012878 154.064865,86.926743 163.496246,91.891953
	C165.893112,100.180809 168.316696,108.348022 169.886749,116.676140
	C171.375977,124.575493 171.967926,132.643799 172.961105,140.636978
	C173.382645,144.029709 172.796005,146.467163 169.050491,148.093811
	C157.179260,153.249344 144.682022,155.785233 132.050827,158.031464
	C113.084709,161.404251 93.967201,159.493393 74.453293,159.908844
z"/>
<path fill="#FFFFFF" opacity="1.000000" stroke="none"
	d="
M135.580353,76.938126
	C135.928391,91.254997 136.016785,105.411392 135.906586,119.566246
	C135.896271,120.892044 134.980530,122.799927 133.896576,123.438652
	C120.579582,131.285721 107.152794,138.946457 93.430511,146.758057
	C81.482742,139.925323 69.965462,132.799637 58.161804,126.184975
	C55.120037,124.480400 53.869175,122.954140 53.919441,119.464035
	C54.118347,105.653687 54.004875,91.838829 54.021004,77.563492
	C62.613747,72.082428 71.175240,67.033279 79.780663,62.060158
	C83.024101,60.185757 86.768875,58.959625 89.568268,56.590820
	C93.176704,53.537407 96.174988,54.232124 99.691948,56.279236
	C111.519783,63.163872 123.403725,69.952118 135.580353,76.938126
z"/>
</svg>
